{"asset":{"version":"2.0","generator":"THREE.GLTFExporter r175"},"scenes":[{"name":"AuxScene","nodes":[5]}],"scene":0,"nodes":[{"mesh":0},{"matrix":[0.13810679320049754,0,-0.13810679320049757,0,0,-0.1953125,0,0,0.13810679320049757,0,0.13810679320049754,0,0,0,0,1],"children":[0]},{"children":[1]},{"matrix":[1,0,0,0,0,1,0,0,0,0,1,0,-51.17516754441616,50.00385483726859,19.548712547699026,1],"children":[2]},{"children":[3]},{"children":[4]}],"bufferViews":[{"buffer":0,"byteOffset":0,"byteLength":157104,"target":34962,"byteStride":12},{"buffer":0,"byteOffset":157104,"byteLength":104736,"target":34962,"byteStride":8},{"buffer":0,"byteOffset":261840,"byteLength":157104,"target":34962,"byteStride":12}],"buffers":[{"byteLength":418944,"uri":"data:application/octet-stream;base64,"}],"accessors":[{"bufferView":0,"componentType":5126,"count":13092,"max":[466.5509948730469,500.65045166015625,101.0999984741211],"min":[45.54460144042969,11.389021873474121,-0.6000000238418579],"type":"VEC3"},{"bufferView":1,"componentType":5126,"count":13092,"max":[483.4732360839844,499.0979919433594],"min":[11.389021873474121,-100.0999984741211],"type":"VEC2"},{"bufferView":2,"componentType":5126,"count":13092,"max":[1,0.8954339623451233,1],"min":[-1,-0.8739034533500671,-1],"type":"VEC3"}],"materials":[{"pbrMetallicRoughness":{"baseColorFactor":[0.9215818562755338,0.12743768042608497,0.035601314869097636,1],"metallicFactor":1,"roughnessFactor":0.2},"doubleSided":true,"extensions":{"KHR_materials_clearcoat":{"clearcoatFactor":0.1,"clearcoatRoughnessFactor":0}}}],"meshes":[{"primitives":[{"mode":4,"attributes":{"POSITION":0,"TEXCOORD_0":1,"NORMAL":2},"material":0}]}],"extensionsUsed":["KHR_materials_clearcoat"]}