<svg width="12" height="12" viewBox="0 0 12 12" fill="none" xmlns="http://www.w3.org/2000/svg">
<g clip-path="url(#clip0_290_827)">
<path d="M6 0C2.691 0 0 2.691 0 6C0 9.309 2.691 12 6 12C9.309 12 12 9.30863 12 6C12 2.69138 9.30863 0 6 0ZM6 0.9645C8.68875 0.9645 10.8919 3.08212 11.0287 5.73712C11.033 5.82438 11.0352 5.912 11.0355 6C11.0355 8.57738 9.05025 9.53213 7.98675 9.669C6.30525 9.885 4.88925 8.97713 4.88925 7.2C4.88925 5.5155 6.75187 4.05713 9.111 4.77525L9.41625 3.40163C8.56125 2.98575 7.64213 2.79713 6.74362 2.79713C3.29025 2.79713 1.13025 5.36588 1.32975 7.69763C1.311 7.70738 1.2855 7.72163 1.26 7.7355C1.10212 7.21425 1.01737 6.6345 1.01737 6C1.01737 3.22312 3.22312 0.9645 6 0.9645Z" fill="#FF101F"/>
</g>
<defs>
<clipPath id="clip0_290_827">
<rect width="12" height="12" fill="white"/>
</clipPath>
</defs>
</svg>
