<svg width="12" height="13" viewBox="0 0 12 13" fill="none" xmlns="http://www.w3.org/2000/svg">
<g clip-path="url(#clip0_290_831)">
<path d="M10.6957 0.0651855H1.30435C0.583976 0.0651855 0 0.649162 0 1.36953V11.2826C0 12.0029 0.583976 12.5869 1.30435 12.5869H10.6957C11.416 12.5869 12 12.0029 12 11.2826V1.36953C12 0.649162 11.416 0.0651855 10.6957 0.0651855Z" fill="#0D0D0D"/>
<mask id="mask0_290_831" style="mask-type:luminance" maskUnits="userSpaceOnUse" x="1" y="3" width="10" height="7">
<path d="M10.6747 3.37653H1.32568V9.2756H10.6747V3.37653Z" fill="white"/>
</mask>
<g mask="url(#mask0_290_831)">
<path d="M6.24769 9.25115C6.3267 9.23464 6.40358 9.21093 6.47757 9.17931C6.55157 9.14842 6.62125 9.11033 6.68376 9.06724C6.73982 9.03059 6.79152 8.98676 6.84111 8.9408C7.42664 8.60386 7.91013 8.58588 9.4095 8.58014C9.54385 8.71233 9.72777 8.79424 9.93109 8.79424C10.3413 8.79424 10.6747 8.46087 10.6747 8.04993C10.6747 7.85093 10.5971 7.66342 10.4563 7.52331C10.3155 7.38322 10.1287 7.30634 9.93109 7.30707C9.72777 7.30707 9.54385 7.38896 9.4095 7.52117C9.02514 7.51757 8.70761 7.51183 8.43891 7.49962C8.76722 6.97157 8.98421 6.45286 9.08477 5.94922C9.16596 5.9126 9.2421 5.8623 9.3075 5.79763C9.58624 5.51746 9.58768 5.02893 9.30604 4.74586C9.16525 4.60577 8.97844 4.52889 8.78016 4.52816C8.58117 4.52816 8.39436 4.60577 8.25497 4.74513C8.1896 4.8105 8.14004 4.88594 8.10268 4.96786C7.59834 5.06842 7.0789 5.28612 6.54941 5.61515C6.53793 5.34502 6.5329 5.02603 6.53073 4.64169C6.66294 4.50734 6.74483 4.32413 6.74483 4.12081C6.74483 3.7106 6.41076 3.37653 5.99981 3.37653C5.58886 3.37653 5.25623 3.7106 5.25623 4.12081C5.25623 4.31766 5.3324 4.50231 5.47032 4.6424C5.46818 5.02749 5.46315 5.34646 5.45164 5.61732C4.92072 5.28612 4.39843 5.06842 3.8912 4.96786C3.85601 4.88667 3.80858 4.8105 3.74394 4.74513C3.4544 4.45705 2.98311 4.45705 2.69287 4.74656C2.55277 4.88811 2.47518 5.07489 2.47518 5.27391C2.47518 5.4729 2.55205 5.65898 2.69143 5.79906C2.75681 5.86446 2.83296 5.91403 2.91487 5.95066C3.01543 6.455 3.23313 6.97444 3.56217 7.50393C3.29277 7.5147 2.97521 7.5183 2.59156 7.52117C2.45722 7.38896 2.27402 7.30707 2.07142 7.30707C1.86882 7.30707 1.68634 7.38322 1.54481 7.52331C1.40399 7.66413 1.3264 7.85093 1.32568 8.04993C1.32568 8.46087 1.65976 8.79424 2.0707 8.79424C2.2733 8.79424 2.45722 8.71233 2.59085 8.58014C4.09596 8.59019 4.59096 8.62611 5.20309 8.98032C5.23901 9.01047 5.27564 9.03993 5.31372 9.0658C5.37837 9.10963 5.44877 9.14842 5.52205 9.1786C5.59606 9.2102 5.67364 9.23464 5.75269 9.25115C5.8317 9.26696 5.91505 9.27559 5.99981 9.27559C6.08459 9.27559 6.16794 9.26696 6.24696 9.25115H6.24769ZM2.81501 8.04993C2.81501 8.01687 2.80924 7.98528 2.80494 7.95293C3.7813 7.9436 4.3395 7.91344 4.81082 7.76399C4.80795 7.77693 4.80362 7.78987 4.80075 7.80351C4.78424 7.88326 4.7756 7.96587 4.7756 8.04993C4.7756 8.13398 4.78424 8.21733 4.80075 8.2978C4.80291 8.30928 4.80649 8.32006 4.80938 8.33156C4.33807 8.18644 3.7813 8.15769 2.80494 8.14835C2.80924 8.11603 2.81501 8.08371 2.81501 8.04993ZM6.09753 4.85506C6.10614 5.83932 6.15573 6.4004 6.30299 6.86524C6.28431 6.8602 6.26564 6.85446 6.24625 6.85086C6.16721 6.83506 6.08459 6.82645 6.00054 6.82645C5.91649 6.82645 5.83457 6.83506 5.75412 6.85086C5.73471 6.85517 5.71603 6.86093 5.69665 6.86594C5.84464 6.40113 5.89421 5.84075 5.90282 4.85649C5.93517 4.8608 5.96678 4.86583 5.9991 4.86583C6.03143 4.86583 6.06448 4.86009 6.0968 4.85576L6.09753 4.85506ZM9.18607 8.04993C9.18607 8.08298 9.19184 8.11459 9.19614 8.14692C8.21117 8.15268 7.65941 8.17206 7.19673 8.31145C7.19673 8.30714 7.1996 8.30211 7.20033 8.2978C7.23409 8.13614 7.23409 7.9666 7.20033 7.80424C7.19673 7.78556 7.19099 7.76688 7.18596 7.74818C7.65797 7.90193 8.21548 7.94002 9.19541 7.95223C9.1911 7.98455 9.18537 8.01617 9.18537 8.04922L9.18607 8.04993ZM5.34388 7.60882C5.37263 7.56643 5.40568 7.52764 5.4423 7.49099C5.47823 7.45506 5.51775 7.42274 5.5587 7.39473C5.60037 7.36671 5.64563 7.34156 5.69305 7.32215C5.74045 7.30204 5.79004 7.28623 5.84104 7.27619C5.89277 7.26612 5.94594 7.26038 6.00124 7.26038C6.05657 7.26038 6.10974 7.26612 6.16004 7.27619C6.21177 7.28696 6.26203 7.30277 6.30946 7.32215C6.35616 7.34226 6.40142 7.36741 6.44237 7.394C6.48477 7.42345 6.52429 7.45507 6.56164 7.49315C6.59757 7.52907 6.62989 7.56787 6.65717 7.60809C6.68522 7.65048 6.71034 7.69574 6.73048 7.74387C6.75059 7.7913 6.76567 7.84016 6.77574 7.89116C6.78651 7.94503 6.79225 7.99676 6.79225 8.05066C6.79225 8.10453 6.78722 8.15769 6.77644 8.21015C6.76494 8.26188 6.74986 8.31215 6.72975 8.35958C6.70963 8.407 6.68449 8.45226 6.65717 8.4932C6.62845 8.53559 6.5954 8.57511 6.56021 8.61103C6.52499 8.64622 6.4862 8.67857 6.44237 8.70802C6.40071 8.73604 6.35616 8.76046 6.31019 8.78057C6.26203 8.80071 6.21247 8.81649 6.16074 8.82656C6.11047 8.83733 6.05657 8.84237 6.00197 8.84237C5.94737 8.84237 5.89348 8.83733 5.84321 8.82656C5.79218 8.81649 5.74262 8.80071 5.69376 8.77986C5.64636 8.75975 5.6011 8.73531 5.55941 8.70729C5.51775 8.67927 5.47823 8.64695 5.4423 8.6103C5.40638 8.57438 5.37406 8.53559 5.34531 8.4932C5.3173 8.45083 5.29288 8.40627 5.27277 8.35814C5.25265 8.31072 5.23684 8.26115 5.22677 8.21015C5.20596 8.1074 5.20596 7.99389 5.22677 7.89116C5.23755 7.84016 5.25265 7.79057 5.27347 7.74317C5.29361 7.69574 5.3173 7.65121 5.34531 7.60953H5.34388V7.60882ZM6.89284 7.15118C6.85189 7.0779 6.81597 7.00533 6.78364 6.93205C7.12202 6.66695 7.48194 6.4162 7.9166 6.1346C7.6357 6.56853 7.38568 6.92774 7.12129 7.26398C7.04444 7.23093 6.96899 7.19357 6.89211 7.15118H6.89284ZM5.09603 7.172C5.02562 7.21081 4.95521 7.24527 4.8841 7.27619C4.6161 6.93492 4.36395 6.57283 4.08088 6.13603C4.51768 6.41837 4.87763 6.66909 5.2153 6.93421C5.18008 7.01396 5.14058 7.09225 5.09603 7.172ZM10.1488 7.83082C10.2077 7.889 10.24 7.96731 10.24 8.04993C10.24 8.22093 10.1014 8.36031 9.93038 8.36031C9.75938 8.36031 9.62 8.22093 9.62 8.04993C9.62 7.87895 9.75938 7.7403 9.93109 7.7403C10.0137 7.7403 10.0913 7.77189 10.1495 7.83009L10.1488 7.83082ZM7.56242 7.40333C7.87564 6.99239 8.17452 6.54338 8.53444 5.9715C8.56249 5.98157 8.59121 5.99161 8.62066 5.99808C8.50716 6.4701 8.28302 6.96007 7.94391 7.4637C7.8031 7.44789 7.67809 7.42848 7.56312 7.40333H7.56242ZM8.99856 5.05261C9.05749 5.11154 9.08908 5.18913 9.08908 5.27247C9.08908 5.3558 9.05749 5.4334 8.99999 5.49087C8.94038 5.54978 8.86207 5.5821 8.77872 5.5821C8.69537 5.5821 8.61923 5.54978 8.56032 5.49087C8.44322 5.37447 8.44249 5.17045 8.56176 5.05191C8.61923 4.99371 8.69684 4.96209 8.78016 4.96209C8.8635 4.96209 8.94182 4.99444 8.99929 5.05261H8.99856ZM8.05311 5.43051C8.05958 5.45999 8.06963 5.48871 8.07897 5.51673C7.50638 5.87667 7.05664 6.17699 6.64353 6.49165C6.61838 6.37598 6.599 6.25097 6.5839 6.11088C7.08897 5.76961 7.58037 5.54474 8.05238 5.43124L8.05311 5.43051ZM5.99981 3.81116C6.17081 3.81116 6.3109 3.95054 6.3109 4.12154C6.3109 4.29252 6.17151 4.43117 5.99981 4.43117C5.91792 4.43117 5.84034 4.39958 5.78141 4.34138C5.7225 4.28247 5.69018 4.20486 5.69018 4.12154C5.69018 3.95054 5.82884 3.81116 5.99981 3.81116ZM5.35611 6.49381C4.94373 6.17913 4.49183 5.87811 3.91421 5.51459C3.92355 5.48657 3.93289 5.45855 3.93863 5.4298C4.41424 5.54331 4.90851 5.76891 5.41645 6.11159C5.40137 6.2517 5.38197 6.37741 5.35611 6.49308V6.49381ZM2.99819 5.49231C2.88252 5.37591 2.88325 5.16972 2.99963 5.05405C3.12033 4.93337 3.31718 4.93337 3.43716 5.05334C3.49679 5.11298 3.52841 5.19056 3.52841 5.27391C3.52841 5.35723 3.49679 5.43411 3.43716 5.49231C3.37896 5.55121 3.30137 5.58353 3.21876 5.58353C3.13614 5.58353 3.05712 5.55121 2.99819 5.49231ZM3.37682 5.99881C3.40627 5.99234 3.43429 5.98227 3.46303 5.97293C3.82439 6.54768 4.12543 6.99886 4.44226 7.41411C4.32659 7.43855 4.20015 7.45723 4.0586 7.4716C3.71592 6.9658 3.49105 6.47297 3.37682 5.99952V5.99881ZM1.76034 8.05066C1.76034 7.96731 1.79267 7.88973 1.85158 7.83082C1.90977 7.77262 1.98808 7.7403 2.07142 7.741C2.24169 7.741 2.38106 7.87966 2.38106 8.05066C2.38106 8.22163 2.24241 8.36101 2.07142 8.36101C1.90043 8.36101 1.76034 8.22236 1.76034 8.05136V8.05066Z" fill="white"/>
</g>
</g>
<defs>
<clipPath id="clip0_290_831">
<rect width="12" height="12.7826" fill="white"/>
</clipPath>
</defs>
</svg>
