<svg width="12" height="13" viewBox="0 0 12 13" fill="none" xmlns="http://www.w3.org/2000/svg">
<g clip-path="url(#clip0_290_840)">
<path d="M10.6957 0.0651855H1.30435C0.583976 0.0651855 0 0.649162 0 1.36953V11.2826C0 12.0029 0.583976 12.5869 1.30435 12.5869H10.6957C11.416 12.5869 12 12.0029 12 11.2826V1.36953C12 0.649162 11.416 0.0651855 10.6957 0.0651855Z" fill="white"/>
<mask id="mask0_290_840" style="mask-type:luminance" maskUnits="userSpaceOnUse" x="1" y="2" width="10" height="9">
<path d="M10.2688 2.229H1.73145V10.4232H10.2688V2.229Z" fill="white"/>
</mask>
<g mask="url(#mask0_290_840)">
<path d="M4.27347 5.61639C4.13873 5.7857 4.02805 5.97603 3.94741 6.18089C3.91937 6.25101 3.89532 6.32262 3.87528 6.39626C3.87528 6.39626 3.87379 6.39976 3.87379 6.40177C3.85475 6.41779 3.83271 6.43732 3.80868 6.46138C3.80516 6.46537 3.80117 6.46939 3.79665 6.4734C3.77211 6.49894 3.74505 6.52899 3.718 6.56304C3.64238 6.65771 3.56273 6.78543 3.50764 6.94871C3.50714 6.95072 3.50615 6.95272 3.50513 6.95523C3.45906 7.09247 3.43052 7.25476 3.43501 7.44308L3.43102 7.44206L3.14002 7.35892L3.00478 7.55327L2.7964 7.34291L2.5605 7.67098C2.52194 7.44559 2.46985 6.62565 3.55373 5.96199C3.58277 5.94397 3.61282 5.92644 3.64389 5.90841C3.64939 5.90541 3.6549 5.90189 3.66092 5.89889C3.68545 5.88488 3.71049 5.87134 3.73655 5.85783C3.78914 5.82926 3.84424 5.80172 3.90134 5.77417C4.01552 5.71959 4.13925 5.667 4.27347 5.61639Z" fill="url(#paint0_radial_290_840)"/>
<path d="M3.87394 6.40204C3.86043 6.45064 3.8484 6.49971 3.83839 6.5493C3.8374 6.55381 3.83687 6.55833 3.83588 6.56333C3.82036 6.64196 3.80933 6.7216 3.80283 6.80323C3.80233 6.80876 3.80181 6.81377 3.80181 6.81878L3.51332 6.93596C3.51332 6.93596 3.51131 6.93998 3.50781 6.94848C3.56291 6.7852 3.64255 6.65748 3.71818 6.56281C3.74523 6.52877 3.77228 6.49872 3.7968 6.47318C3.80132 6.46916 3.80533 6.46514 3.80883 6.46165C3.83288 6.4371 3.85493 6.41756 3.87394 6.40204Z" fill="#777136"/>
<path d="M4.72591 5.27917C4.71839 5.2827 4.68482 5.2972 4.63625 5.32626C4.59568 5.35081 4.54358 5.38587 4.4875 5.43244C4.43389 5.47702 4.37579 5.53211 4.31869 5.59973C4.23354 5.70142 4.1504 5.83063 4.08779 5.99341C4.08779 5.99341 4.08764 5.99375 4.0873 5.99443C4.06074 6.06455 4.03721 6.14169 4.01968 6.22532C3.99062 6.36207 3.96709 6.49329 3.94805 6.616C3.93905 6.67311 3.93153 6.7287 3.92451 6.78228C3.92 6.82037 3.91549 6.85741 3.9115 6.89349V6.89498C3.87492 7.23958 3.88194 7.48801 3.9145 7.57918C3.917 7.58769 3.92 7.59471 3.9235 7.60021C3.926 7.60472 3.92702 7.60871 3.926 7.61174C3.92451 7.62024 3.9115 7.62374 3.89045 7.62374C3.74068 7.62476 3.17219 7.44593 3.13664 7.43492H3.13515L3.01844 7.70889L2.80006 7.50906L2.7655 7.4775L2.73745 7.45196L2.49002 7.8832L2.191 8.13713C2.191 8.13713 1.97663 7.39937 2.23057 6.88697C2.2501 6.84791 2.26963 6.81035 2.28967 6.77328C2.5356 6.32349 2.85466 6.01595 3.36354 5.70643C3.40611 5.68037 3.4507 5.65584 3.49627 5.63278C3.49627 5.63631 3.49726 5.6398 3.49776 5.64332C3.50178 5.67387 3.50629 5.70442 3.51179 5.73546C3.03096 5.95136 2.67884 6.24186 2.45946 6.60447C2.1354 7.13991 2.1945 7.7019 2.24659 7.95734C2.28266 7.93177 2.32122 7.90725 2.36129 7.88521C2.38483 7.87167 2.40888 7.85967 2.43292 7.84814L2.56064 7.67083L2.79654 7.34276L3.00492 7.55312L3.14016 7.3588L3.43116 7.44194L3.43515 7.44293C3.43066 7.25461 3.4592 7.09232 3.50527 6.95508C3.50629 6.95258 3.50728 6.95059 3.50778 6.94858C3.5113 6.94005 3.51331 6.93606 3.51331 6.93606L3.8018 6.81885C3.8018 6.81384 3.8023 6.80884 3.80279 6.80383C3.80931 6.72168 3.82032 6.64204 3.83585 6.56341C3.83686 6.5584 3.83736 6.55389 3.83835 6.54937C3.84837 6.49981 3.86039 6.45071 3.87393 6.40214C3.87393 6.39964 3.87443 6.39862 3.87542 6.39661C3.89545 6.3225 3.91951 6.25086 3.94755 6.18074C4.02818 5.97588 4.13887 5.78555 4.27361 5.61627H4.27411C4.32119 5.55666 4.37178 5.49956 4.42489 5.44548H4.42538C4.43089 5.43945 4.43689 5.43345 4.44292 5.42743C4.47798 5.39237 4.51403 5.35882 4.5511 5.32676H4.55159C4.56211 5.31724 4.57212 5.30824 4.58266 5.29971C4.6117 5.29522 4.63625 5.2912 4.65678 5.2882H4.65727C4.69536 5.2827 4.71938 5.27967 4.72591 5.27917Z" fill="url(#paint1_radial_290_840)"/>
<path d="M4.42486 5.44562C4.37178 5.4997 4.32119 5.5568 4.27411 5.61641H4.27361C4.13937 5.66699 4.01566 5.71958 3.90145 5.77418C3.84435 5.80173 3.78925 5.82928 3.73666 5.85782C3.71063 5.87136 3.68558 5.88487 3.66104 5.8989C3.65504 5.9019 3.64953 5.9054 3.644 5.9084C3.61296 5.92645 3.58291 5.94398 3.55385 5.96201C2.46997 6.62566 2.52206 7.44557 2.56063 7.67097L2.43291 7.84828C2.40887 7.85981 2.38482 7.87181 2.36128 7.88535C2.32121 7.90739 2.28265 7.93191 2.24658 7.95748C2.19449 7.70203 2.13539 7.14004 2.45945 6.60461C2.67884 6.242 3.03096 5.9515 3.51179 5.7356C3.54435 5.72057 3.5774 5.70657 3.61095 5.69303C3.61645 5.69003 3.62198 5.68802 3.62798 5.68604C3.65204 5.6755 3.67656 5.666 3.7016 5.65697C3.76322 5.63292 3.82682 5.60989 3.89245 5.58886C4.05824 5.53377 4.23555 5.48618 4.42486 5.44562Z" fill="url(#paint2_radial_290_840)"/>
<path d="M3.49785 5.64331C3.50186 5.67386 3.50638 5.70441 3.51188 5.73545C3.03105 5.95135 2.67893 6.24185 2.45955 6.60446C2.13549 7.13989 2.19459 7.70188 2.24668 7.95733C2.28274 7.93179 2.32131 7.90724 2.36138 7.8852C2.38492 7.87168 2.40896 7.85966 2.433 7.84813L2.56073 7.67081C2.56724 7.7094 2.57325 7.73042 2.57325 7.73042L2.4901 7.88319L2.19559 8.04195C2.19559 8.04195 2.0298 7.46747 2.16604 7.08381C2.1991 6.99065 2.23817 6.88497 2.28975 6.77327C2.45154 6.42467 2.73804 6.01244 3.36363 5.70641C3.4097 5.68388 3.45428 5.66282 3.49785 5.64331Z" fill="url(#paint3_radial_290_840)"/>
<path d="M4.64006 5.32301L4.63604 5.32654L4.53286 5.42371L4.36108 5.58448C4.34655 5.58949 4.33252 5.595 4.31851 5.60001C4.30296 5.60551 4.28846 5.61101 4.27393 5.61655C4.32101 5.55694 4.3716 5.49983 4.42468 5.44573H4.42518C4.43068 5.43973 4.43671 5.43373 4.44271 5.4277C4.47777 5.39264 4.51385 5.35909 4.55089 5.32703H4.55141C4.56842 5.32552 4.58295 5.32453 4.59498 5.32403C4.62503 5.32252 4.64006 5.32301 4.64006 5.32301Z" fill="url(#paint4_radial_290_840)"/>
<path d="M3.02344 9.62386C3.02344 9.62386 3.54085 10.1918 4.11085 10.2434C4.68082 10.295 5.13562 10.1884 5.70912 9.89433C6.28261 9.60033 6.78648 8.9547 6.78648 8.9547C6.78648 8.9547 6.30314 9.30982 5.60944 9.0639C4.91623 8.81795 4.44291 8.53348 4.38682 8.4278C4.33071 8.3216 4.11685 9.18661 4.11685 9.18661L3.82183 9.14253L3.89396 9.51617L3.39711 9.50216L3.02396 9.62435L3.02344 9.62386Z" fill="url(#paint5_radial_290_840)"/>
<path d="M3.95827 8.71716C3.95827 8.71716 3.80853 8.17523 3.64473 8.04751C3.48096 7.91979 3.40332 7.88021 3.40332 7.88021L4.00035 7.84766L4.27032 8.26789L3.95879 8.71768L3.95827 8.71716Z" fill="#FFF6F6"/>
<path d="M3.42432 9.55165L3.99429 9.5246L3.85105 9.19501L4.14455 9.23558L4.41453 8.47676L4.27329 8.22583L3.87909 8.79633L3.42432 9.55165Z" fill="url(#paint6_linear_290_840)"/>
<path d="M2.49023 7.88337L2.81079 7.41156L3.01714 7.70556L3.13586 7.4346L3.92372 7.60038L4.06396 7.85233L3.37127 7.89039L2.49023 7.88337Z" fill="url(#paint7_linear_290_840)"/>
<path d="M3.24292 9.45892C3.71066 9.19696 3.91495 8.67235 3.69923 8.28715C3.48352 7.90195 2.92946 7.80204 2.46171 8.06397C1.99397 8.32594 1.78967 8.85055 2.00539 9.23575C2.22111 9.62095 2.77518 9.72086 3.24292 9.45892Z" fill="url(#paint8_radial_290_840)"/>
<path d="M3.58537 9.53812C3.58537 9.53812 4.54151 10.5894 6.34965 9.13492L6.71831 9.03375C6.71831 9.03375 6.50092 9.42845 5.72408 9.92181C4.94773 10.4152 4.32165 10.3075 3.92395 10.2233C3.52576 10.1392 3.12256 9.69741 3.12256 9.69741L3.41205 9.52961L3.58586 9.53864L3.58537 9.53812Z" fill="url(#paint9_radial_290_840)"/>
<path d="M4.3866 8.42658L4.3886 8.42809C4.3886 8.42809 4.3921 8.43109 4.3946 8.43261C4.4492 8.47716 4.77227 8.73613 5.05677 8.92596L5.05977 8.92795C5.18848 9.01362 5.30869 9.08473 5.39334 9.11577C5.39334 9.11577 5.13892 9.24099 4.75374 9.14935C4.64856 9.1248 4.53435 9.08374 4.41315 9.01962C4.36155 8.99306 4.30896 8.96152 4.25488 8.92544L4.38709 8.42609L4.3866 8.42658Z" fill="#777136"/>
<path d="M3.92889 7.58388C3.92988 7.6029 3.93038 7.61341 3.93038 7.61341L3.92589 7.61192L3.88279 7.5994L3.43553 7.46516C3.43553 7.45814 3.43504 7.45063 3.43504 7.44413V7.44311C3.43052 7.25479 3.45906 7.09251 3.50516 6.95529C3.50615 6.95278 3.50714 6.95078 3.50766 6.94877C3.51116 6.94026 3.51317 6.93624 3.51317 6.93624L3.80166 6.81904C3.80166 6.81403 3.80216 6.80902 3.80265 6.80401C3.80918 6.72186 3.82019 6.64224 3.83573 6.56359C3.83672 6.55858 3.83722 6.55407 3.83824 6.54958C3.84825 6.49999 3.86025 6.4509 3.87379 6.40232C3.87379 6.40232 3.87528 6.40031 3.8763 6.39982C3.90283 6.37728 3.92286 6.36275 3.9334 6.35573C3.93591 6.35372 3.93739 6.35273 3.93891 6.35174C3.94092 6.35023 3.94191 6.34973 3.94191 6.34973C3.93189 6.39781 3.92537 6.46292 3.92036 6.53805V6.53904C3.91535 6.61368 3.91285 6.69833 3.91235 6.78698C3.91136 6.82204 3.91136 6.85762 3.91136 6.89367V6.89518C3.91136 7.18767 3.92438 7.4902 3.92889 7.58388Z" fill="#777136"/>
<path d="M4.81748 5.37044L4.80645 5.29881L4.79393 5.21616H4.79343L4.78743 5.1756C4.78041 5.17659 4.7734 5.17761 4.76688 5.17909C4.75537 5.18061 4.74434 5.18212 4.73333 5.1841C4.68123 5.22018 4.63115 5.25923 4.58257 5.29982C4.57206 5.30833 4.56204 5.31735 4.5515 5.32685H4.55101C4.51394 5.35891 4.47788 5.39249 4.44282 5.42755C4.43682 5.43355 4.4308 5.43955 4.42529 5.44557C4.44582 5.44056 4.46635 5.43655 4.48741 5.43255C4.50243 5.42903 4.51746 5.42603 4.53298 5.42353C4.58106 5.41351 4.62966 5.40449 4.67922 5.39598H4.67974C4.72331 5.38847 4.76688 5.38145 4.81195 5.37443C4.81396 5.37394 4.81597 5.37394 4.81798 5.37344V5.37044H4.81748Z" fill="#777136"/>
<path d="M2.80051 9.60018C2.79451 9.60119 2.78851 9.60169 2.78248 9.60169C2.46294 9.62222 2.16492 9.48899 2.01866 9.22753C1.87091 8.96358 1.91599 8.636 2.10582 8.37305C2.10582 8.37305 2.10598 8.37271 2.10632 8.37206C2.11133 8.36504 2.11633 8.35802 2.12184 8.35152C2.12735 8.34401 2.13286 8.33699 2.13937 8.32998C2.22202 8.22479 2.33071 8.13213 2.45893 8.06C2.60218 7.97986 2.75394 7.93528 2.9012 7.92328C2.91172 7.92177 2.92223 7.92127 2.93274 7.92078C2.93927 7.92026 2.94527 7.92026 2.95179 7.91976C3.25933 7.90974 3.54281 8.04247 3.68454 8.29492C3.82729 8.55036 3.78973 8.86591 3.61594 9.12435C3.60592 9.13888 3.5959 9.15341 3.58489 9.16742C3.49873 9.28314 3.38353 9.3853 3.2448 9.46293C3.10155 9.54307 2.94879 9.58815 2.80051 9.60018ZM6.91518 8.98061L6.89162 8.96058L6.81649 8.89695L6.76792 8.85589C6.74037 8.88845 6.71282 8.92051 6.68527 8.95155C6.65473 8.98661 6.62415 9.02068 6.5936 9.05423C6.5881 9.06026 6.5826 9.06626 6.57709 9.07226C6.56355 9.08679 6.55053 9.10132 6.53752 9.11483C6.40828 9.25309 6.27957 9.37779 6.15083 9.48949C6.10074 9.53358 6.05016 9.57563 6.00007 9.6157C5.97855 9.63273 5.957 9.64977 5.93546 9.66579C5.93097 9.6698 5.92596 9.6733 5.92145 9.67633C5.89239 9.69834 5.86335 9.71989 5.83479 9.74042C5.37949 10.064 4.92821 10.2258 4.48646 10.2233C3.86037 10.2198 3.41157 9.87615 3.22124 9.69785C3.26183 9.68032 3.30289 9.66028 3.34296 9.63774C3.369 9.62321 3.39404 9.60819 3.41859 9.59217L3.62546 9.57665L4.03067 9.54659L3.96002 9.25909L4.19694 9.24506L4.27959 8.94954L4.2811 8.94354L4.3998 8.5183V8.51731L4.40431 8.50228L4.41232 8.47322L4.41482 8.4632L4.41782 8.45269L4.44036 8.37206L4.34371 8.3455L4.34269 8.34952L4.32467 8.41361L4.1198 9.14939L3.94249 9.15991H3.942L3.8348 9.16643L3.90545 9.45542L3.8814 9.45693L3.56585 9.47997C3.67202 9.3878 3.75967 9.28064 3.82531 9.16593C3.8298 9.15892 3.83381 9.1519 3.83731 9.14439C3.91145 9.00965 3.95603 8.86492 3.96855 8.71966L3.97056 8.66405V8.66306L3.97155 8.62499C3.97056 8.47724 3.93399 8.33097 3.85935 8.19725C3.78524 8.06501 3.68105 7.95834 3.55734 7.88019C3.29439 7.71239 2.94326 7.67133 2.60618 7.77852L2.80001 7.50905L2.80854 7.49702L3.01839 7.7089L3.18169 7.47448L3.90845 7.68185H3.90894L3.98006 7.70238H3.98058L3.98457 7.70339L4.01212 7.60721L3.92898 7.58368L3.91445 7.57917L3.87388 7.56766L3.50775 7.46347L3.50423 7.46248L3.43513 7.44294L3.43111 7.44192L3.14011 7.35879L3.00487 7.55313L2.79652 7.34277L2.56061 7.67084L2.43288 7.84815C2.40884 7.85966 2.3848 7.87168 2.36126 7.88519C2.32119 7.90724 2.28262 7.93179 2.24656 7.95732C2.19447 7.70188 2.13537 7.13992 2.45943 6.60448C2.67881 6.24185 3.03091 5.95134 3.51174 5.73547C3.5443 5.72045 3.57738 5.70641 3.61093 5.6929C3.61643 5.6899 3.62194 5.68789 3.62796 5.68588C3.65199 5.67537 3.67654 5.66585 3.70158 5.65685C3.7632 5.63279 3.8268 5.60976 3.8924 5.58871C4.05821 5.53361 4.2355 5.48603 4.42484 5.44546H4.42534C4.43087 5.43946 4.43687 5.43344 4.44287 5.42744C4.47793 5.39238 4.514 5.35883 4.55105 5.32677H4.55157C4.56208 5.31725 4.5721 5.30822 4.58261 5.29972C4.63119 5.25915 4.6813 5.22007 4.73337 5.18402C4.65125 5.19704 4.57059 5.21157 4.49196 5.22709C4.27909 5.26867 4.07974 5.31876 3.89392 5.37785C3.81928 5.40039 3.74715 5.42543 3.67703 5.45146C3.65501 5.4595 3.63297 5.468 3.61093 5.47703C3.60391 5.47953 3.5964 5.48204 3.58938 5.48553C3.55333 5.49907 3.51827 5.51358 3.4837 5.52913C2.93627 5.76453 2.53556 6.09059 2.28663 6.50332C1.87341 7.18951 2.01616 7.89172 2.07376 8.10208C1.73367 8.44267 1.62648 8.93653 1.84386 9.32572C2.06174 9.71439 2.53907 9.88116 3.00738 9.76948C3.15714 9.92874 3.68105 10.4176 4.48194 10.4231C4.98433 10.4271 5.49219 10.2408 5.99958 9.86765C6.02963 9.8456 6.06018 9.82257 6.09023 9.79904C6.09573 9.79502 6.10127 9.79051 6.10677 9.786C6.12579 9.77097 6.14533 9.75545 6.16437 9.73992C6.22095 9.69386 6.27756 9.64526 6.33417 9.59467C6.47791 9.46596 6.62115 9.32269 6.7639 9.16442C6.816 9.10682 6.86859 9.04672 6.92068 8.98513L6.91518 8.98061Z" fill="#777136"/>
<path d="M5.05663 8.92642L4.7536 9.14983C4.7536 9.14983 4.51118 9.10423 4.27979 8.94998L4.41001 8.51172L5.05663 8.92642Z" fill="url(#paint10_radial_290_840)"/>
<path d="M3.87793 7.56296L3.87193 7.56144L3.50778 7.46377L3.50429 7.46278L3.43516 7.44423L3.43117 7.44324V7.44225C3.42465 7.18279 3.48324 7.00999 3.50528 6.95539C3.5063 6.95289 3.50729 6.95088 3.50778 6.94889C3.51131 6.94036 3.51329 6.93637 3.51329 6.93637L3.80181 6.81916L3.80781 6.81666L3.86241 6.79462V6.80563L3.87793 7.56296Z" fill="url(#paint11_radial_290_840)"/>
<path d="M9.80888 8.13723C9.80888 8.13723 10.0228 7.39943 9.76881 6.88654C9.51488 6.37364 9.18631 6.04158 8.63585 5.7065C8.08589 5.37141 7.27197 5.27875 7.27197 5.27875C7.27197 5.27875 7.82744 5.50565 7.97971 6.22539C8.13248 6.94516 8.13699 7.4971 8.07587 7.60028C8.01477 7.70345 8.86375 7.434 8.86375 7.434L8.98043 7.70846L9.26144 7.45203L9.50885 7.88327L9.80789 8.13723H9.80888Z" fill="url(#paint12_radial_290_840)"/>
<path d="M9.42645 7.73035C9.42645 7.73035 9.82316 6.36601 7.63835 5.58413L7.35938 5.32268C7.35938 5.32268 7.80966 5.30215 8.6361 5.70635C9.46253 6.11056 9.69745 6.70057 9.83367 7.08374C9.9699 7.4669 9.80411 8.04191 9.80411 8.04191L9.50962 7.88312L9.42645 7.73035Z" fill="url(#paint13_radial_290_840)"/>
<path d="M8.97688 9.62394C8.97688 9.62394 8.4595 10.1919 7.8895 10.2435C7.3195 10.2951 6.86473 10.1884 6.29123 9.89441C5.71774 9.60039 5.21387 8.95476 5.21387 8.95476C5.21387 8.95476 5.69721 9.30988 6.39091 9.06396C7.08409 8.81804 7.55742 8.53353 7.61353 8.42785C7.66962 8.32168 7.8835 9.18667 7.8835 9.18667L8.17849 9.14259L8.10639 9.51626L8.60324 9.50222L8.97639 9.62444L8.97688 9.62394Z" fill="url(#paint14_radial_290_840)"/>
<path d="M8.03178 8.71716C8.03178 8.71716 8.18152 8.17523 8.34532 8.04751C8.50909 7.91979 8.58673 7.88021 8.58673 7.88021L7.9897 7.84766L7.71973 8.26789L8.03126 8.71768L8.03178 8.71716Z" fill="#FFF6F6"/>
<path d="M8.57566 9.55165L8.00568 9.5246L8.14893 9.19501L7.85542 9.23558L7.58545 8.47676L7.72668 8.22583L8.12138 8.79633L8.57566 9.55165Z" fill="url(#paint15_linear_290_840)"/>
<path d="M9.50976 7.88337L9.1892 7.41156L8.98335 7.70556L8.86463 7.4346L8.07628 7.60038L7.93604 7.85233L8.62872 7.89039L9.50976 7.88337Z" fill="url(#paint16_linear_290_840)"/>
<path d="M9.99513 9.23605C10.2108 8.85085 10.0065 8.32624 9.5388 8.0643C9.07106 7.80233 8.51702 7.90225 8.30128 8.28745C8.08557 8.67265 8.28988 9.19726 8.75762 9.45922C9.22536 9.72116 9.7794 9.62125 9.99513 9.23605Z" fill="url(#paint17_radial_290_840)"/>
<path d="M8.41419 9.5382C8.41419 9.5382 7.45805 10.5895 5.64991 9.13501L5.28125 9.03381C5.28125 9.03381 5.49863 9.42851 6.27548 9.92187C7.05182 10.4152 7.67791 10.3075 8.07561 10.2234C8.4738 10.1392 8.877 9.69747 8.877 9.69747L8.58751 9.52967L8.41369 9.5387L8.41419 9.5382Z" fill="url(#paint18_radial_290_840)"/>
<path d="M7.61368 8.42689L7.61167 8.4284C7.61167 8.4284 7.60818 8.4314 7.60567 8.43291C7.55107 8.4775 7.22801 8.73644 6.94351 8.92627L6.94051 8.92828C6.81179 9.01392 6.69159 9.08504 6.60693 9.11611C6.60693 9.11611 6.86136 9.24132 7.24653 9.14965C7.35172 9.12511 7.46593 9.08404 7.58713 9.01992C7.63873 8.99339 7.69132 8.96183 7.74542 8.92577L7.61319 8.42639L7.61368 8.42689Z" fill="#335681"/>
<path d="M8.05762 6.34956C8.05762 6.34956 8.59256 6.68665 8.5635 7.46449L8.06866 7.61276C8.06866 7.61276 8.11825 6.65308 8.05713 6.34906L8.05762 6.34956Z" fill="#335681"/>
<path d="M8.03123 8.71964C8.05476 8.99712 8.19702 9.27411 8.43391 9.47997L8.09483 9.45542L8.16545 9.16593L7.88045 9.14939L7.65608 8.3455L7.5594 8.37255L7.80281 9.24555L8.03974 9.25958L7.96912 9.54758L8.58117 9.59266C8.60572 9.60868 8.63076 9.62371 8.65732 9.63873C8.69687 9.66078 8.73795 9.68131 8.77852 9.69884C8.58819 9.87717 8.13941 10.2208 7.51382 10.2243C6.77053 10.2288 6.00271 9.76846 5.23187 8.85688L5.0791 8.98612C5.89101 9.94627 6.71144 10.4306 7.51834 10.4246C8.31871 10.4191 8.84314 9.92976 8.99238 9.77097C9.46069 9.88267 9.93803 9.71637 10.1559 9.3272C10.3738 8.93804 10.2666 8.44416 9.92601 8.10357C9.98361 7.8932 10.1268 7.1905 9.71363 6.5048C9.29741 5.8141 8.45595 5.36684 7.21281 5.177L7.18226 5.37485C8.3623 5.55565 9.15618 5.96986 9.54034 6.60597C9.86441 7.1414 9.8058 7.70339 9.75321 7.95884C9.71715 7.93327 9.67857 7.90875 9.6385 7.88671C9.61497 7.87369 9.59092 7.86117 9.56689 7.85013L9.20376 7.34475L8.99541 7.55511L8.85965 7.3603L7.98814 7.60872L8.01568 7.70488L8.81859 7.47599L8.98187 7.71038L9.19174 7.49903L9.39409 7.78051C8.89873 7.62325 8.37331 7.78502 8.14142 8.19873C8.06629 8.33248 8.03021 8.47872 8.02873 8.62648L8.03173 8.72115L8.03123 8.71964ZM9.54083 8.06C10.0001 8.31745 10.1975 8.84086 9.9811 9.22802C9.76424 9.6152 9.21428 9.72038 8.75499 9.46343C8.29617 9.2065 8.09885 8.68259 8.31571 8.29541C8.5321 7.90875 9.08204 7.80305 9.54083 8.06Z" fill="#1C4372"/>
<path d="M6.94336 8.92675L7.24639 9.15014C7.24639 9.15014 7.48881 9.10456 7.72023 8.95028L7.59 8.51202L6.94336 8.92675Z" fill="#1C4372"/>
<path d="M8.1376 6.79443L8.4862 6.93616C8.4862 6.93616 8.57688 7.12399 8.56835 7.44306L8.12158 7.56275L8.1376 6.79443Z" fill="#1C4372"/>
<path d="M6.8616 3.112C6.8616 3.112 7.6099 3.28579 7.93346 3.75812C8.25704 4.23045 8.38625 4.67923 8.40981 5.32334C8.43334 5.96745 8.11628 6.72228 8.11628 6.72228C8.11628 6.72228 8.18992 6.12674 7.63646 5.64189C7.083 5.15706 6.60365 4.88307 6.48396 4.88607C6.36425 4.88909 7.01387 4.27952 7.01387 4.27952L6.83154 4.04362L7.19269 3.9239L6.93774 3.49717L6.86212 3.112H6.8616Z" fill="url(#paint19_radial_290_840)"/>
<path d="M7.02967 3.64463C7.02967 3.64463 8.41408 3.96519 8.02841 6.25315L8.12008 6.62429C8.12008 6.62429 8.35799 6.24164 8.40907 5.32304C8.46015 4.40444 8.06047 3.91109 7.79251 3.60506C7.52454 3.29903 6.94202 3.16278 6.94202 3.16278L6.93701 3.49737L7.02967 3.64463Z" fill="url(#paint20_radial_290_840)"/>
<path d="M5.54197 4.88607H5.53396C5.52246 4.88607 5.50793 4.88857 5.4904 4.89309H5.4899C5.4353 4.90861 5.35266 4.94617 5.24896 5.00578C5.24797 5.00628 5.24698 5.0068 5.24547 5.0073C5.12427 5.0764 4.97401 5.17459 4.80671 5.29879C4.76562 5.32934 4.72305 5.3619 4.67998 5.39596H4.67949C4.58432 5.4706 4.48514 5.55275 4.38348 5.64189C4.25325 5.7561 4.15759 5.8763 4.08796 5.99351C4.08796 5.99351 4.08778 5.99383 4.08747 5.9945C4.01182 6.12123 3.96624 6.24395 3.93919 6.35163C3.92518 6.40723 3.91616 6.4588 3.91016 6.5049C3.89312 6.63713 3.90363 6.72228 3.90363 6.72228C3.90363 6.72228 3.88762 6.68369 3.86257 6.61657C3.86257 6.61657 3.86208 6.61509 3.86156 6.61459C3.85456 6.59505 3.84705 6.57301 3.83852 6.54948C3.84854 6.49989 3.86056 6.45079 3.87408 6.40222C3.87408 6.39971 3.8746 6.39869 3.87559 6.39671C3.89562 6.32257 3.91968 6.25094 3.94772 6.18082C4.02836 5.97598 4.13904 5.78565 4.27378 5.61635H4.27428C4.32136 5.55674 4.37195 5.49963 4.42503 5.44556H4.42556C4.43106 5.43953 4.43706 5.43353 4.44309 5.42753C4.47815 5.39247 4.5142 5.35889 4.55127 5.32683H4.55176C4.56228 5.31734 4.57229 5.30831 4.58281 5.29981C4.63141 5.25922 4.68149 5.22016 4.73359 5.18409C4.65144 5.19713 4.57081 5.21163 4.49216 5.22718C4.27929 5.26874 4.07996 5.31883 3.89411 5.37794C3.8195 5.40048 3.74737 5.42552 3.67725 5.45156C3.65521 5.45956 3.63316 5.4681 3.61112 5.47709C3.60862 5.42503 3.60812 5.37392 3.61013 5.32284C3.63366 4.67923 3.76339 4.22993 4.08645 3.75812C4.23822 3.53675 4.48263 3.38096 4.70051 3.27778C4.70552 3.27528 4.71053 3.27327 4.71504 3.27129C4.71705 3.27027 4.71856 3.26928 4.72055 3.26878C4.95846 3.15859 5.15831 3.112 5.15831 3.112L5.08269 3.49717L5.05313 3.54624L4.82724 3.9239L4.88385 3.94245L5.16582 4.0361L5.18836 4.04362L5.17835 4.05663L5.11425 4.13928H5.11373L5.00604 4.27952C5.00604 4.27952 5.4413 4.68823 5.53297 4.8345C5.55251 4.86254 5.55752 4.88158 5.54197 4.88607Z" fill="url(#paint21_radial_290_840)"/>
<path d="M5.49854 4.33814C5.49854 4.33814 6.04448 4.47238 6.23633 4.39175C6.42814 4.31109 6.50077 4.26251 6.50077 4.26251L6.23781 4.79943L5.73895 4.82949L5.49903 4.33814H5.49854Z" fill="#EDE5EB"/>
<path d="M5.02546 3.49719L4.77002 4.00756L5.12762 4.04364L4.94882 4.27954L5.47875 4.88609L5.76725 4.88559L5.46221 4.26251L5.02546 3.49719Z" fill="url(#paint22_radial_290_840)"/>
<path d="M6.9371 3.49719L7.19254 4.00756L6.83491 4.04364L7.01371 4.27954L6.48331 4.88609L6.19531 4.88559L6.50032 4.26251L6.9371 3.49719Z" fill="url(#paint23_radial_290_840)"/>
<path d="M5.99423 4.35414C6.4357 4.35414 6.79362 3.91956 6.79362 3.38347C6.79362 2.84738 6.4357 2.41278 5.99423 2.41278C5.55274 2.41278 5.19482 2.84738 5.19482 3.38347C5.19482 3.91956 5.55274 4.35414 5.99423 4.35414Z" fill="url(#paint24_radial_290_840)"/>
<path d="M3.95915 6.25301L3.93361 6.35569L3.90256 6.48193L3.8675 6.62418C3.8675 6.62418 3.86599 6.62167 3.86249 6.61666C3.86249 6.61614 3.862 6.61515 3.86148 6.61466C3.85597 6.60414 3.84697 6.5876 3.83594 6.56355C3.83695 6.55854 3.83745 6.55406 3.83844 6.54954C3.84846 6.49995 3.86049 6.45086 3.874 6.40228C3.874 6.39978 3.87452 6.39879 3.87551 6.39678C3.89555 6.32264 3.9196 6.25103 3.94764 6.18091C3.95114 6.20444 3.95515 6.22849 3.95915 6.25301Z" fill="url(#paint25_radial_290_840)"/>
<path d="M5.05074 3.49737L5.0372 3.51889L4.95808 3.64463C4.95808 3.64463 4.95558 3.64513 4.95107 3.64612C4.94306 3.64862 4.92701 3.65314 4.90497 3.66065C4.69562 3.73377 3.93881 4.08689 3.89423 5.37814C3.8196 5.40068 3.74747 5.42572 3.67734 5.45175C3.6553 5.45976 3.63328 5.46829 3.61124 5.47729C3.60422 5.4798 3.59671 5.4823 3.58969 5.48582C3.58518 5.43373 3.58119 5.37913 3.57819 5.32304C3.52708 4.40444 3.92679 3.91109 4.19475 3.60506C4.32347 3.4578 4.52582 3.34962 4.70063 3.27798C4.70564 3.27548 4.71065 3.27347 4.71516 3.27149C4.71714 3.27047 4.71866 3.26948 4.72067 3.26898C4.89947 3.19685 5.04521 3.16278 5.04521 3.16278L5.05074 3.49737Z" fill="url(#paint26_radial_290_840)"/>
<path d="M5.53628 4.88606L5.53378 4.88705C5.53378 4.88705 5.52976 4.88856 5.52676 4.89005C5.52026 4.89255 5.51074 4.89657 5.49822 4.90158C5.44962 4.92112 5.35847 4.95868 5.24878 5.00574C5.24778 5.00626 5.24677 5.00676 5.24528 5.00726C5.10853 5.06637 4.94275 5.14098 4.794 5.21611C4.78698 5.21963 4.77997 5.22312 4.77295 5.22665L4.76995 5.22813C4.73038 5.24817 4.69281 5.2682 4.65725 5.28824H4.65676C4.63521 5.30026 4.61468 5.31229 4.59514 5.32379C4.53253 5.36037 4.47994 5.39593 4.44287 5.42749C4.47793 5.39243 4.51401 5.35886 4.55108 5.32682H4.55158C4.56209 5.3173 4.57211 5.30827 4.58262 5.29977C4.63122 5.2592 4.68131 5.22013 4.73338 5.18407C4.65125 5.19709 4.57059 5.21162 4.49197 5.22714C4.53105 5.12295 4.60117 4.98923 4.72638 4.85298C4.72638 4.85298 4.72688 4.85199 4.72889 4.85047C4.73038 4.84849 4.73238 4.84648 4.7339 4.84447C4.73489 4.84296 4.7364 4.84147 4.73789 4.83996C4.80903 4.76483 4.89668 4.6897 5.00585 4.61908C5.04642 4.59253 5.09001 4.56699 5.13658 4.54194C5.1461 4.53693 5.15562 4.53193 5.16514 4.52692L5.49271 4.84398L5.53628 4.88606Z" fill="#244C0F"/>
<path d="M7.56614 5.51313C7.56614 5.51313 7.53359 4.88204 6.84038 4.52692L6.46924 4.88606C6.46924 4.88606 7.33073 5.31179 7.56614 5.51313Z" fill="#244C0F"/>
<path d="M5.29107 2.92134C5.29107 2.92134 5.29258 2.91782 5.29357 2.91581C5.29357 2.91581 5.29357 2.91482 5.29457 2.91432C5.43283 2.6253 5.69427 2.42947 5.9943 2.42947C6.29432 2.42947 6.55577 2.6253 6.6935 2.91432C6.694 2.91482 6.6945 2.91581 6.6945 2.91581C6.69551 2.91782 6.6965 2.91933 6.697 2.92134C6.76162 3.05856 6.79819 3.21633 6.79819 3.38412C6.79819 3.55191 6.76162 3.70919 6.697 3.84643C6.6965 3.84844 6.69551 3.84993 6.6945 3.85194C6.6945 3.85194 6.694 3.85296 6.6935 3.85345C6.55577 4.14244 6.2938 4.33828 5.9943 4.33828C5.69477 4.33828 5.43283 4.14244 5.29457 3.85345C5.29407 3.85296 5.29357 3.85194 5.29357 3.85194C5.29258 3.84993 5.29157 3.84844 5.29107 3.84643C5.22645 3.70919 5.1899 3.55191 5.1899 3.38412C5.1899 3.21633 5.22645 3.05856 5.29107 2.92134ZM8.2407 3.99419C7.84399 3.29848 7.16132 3.0801 6.94944 3.02751C6.81872 2.56421 6.44007 2.22913 5.9943 2.22913C5.54852 2.22913 5.16987 2.56421 5.03863 3.02751C4.82677 3.0801 4.14408 3.29848 3.7479 3.99419C3.50698 4.41643 3.41933 4.93032 3.48392 5.52936C3.51849 5.51383 3.55355 5.4993 3.58963 5.48579C3.59662 5.48227 3.60413 5.47976 3.61115 5.47726C3.63319 5.46826 3.65523 5.45973 3.67728 5.45172C3.62818 4.9208 3.70931 4.46702 3.9202 4.09588C4.22923 3.55142 4.74812 3.32803 4.99655 3.24889C4.99206 3.29297 4.98956 3.33855 4.98956 3.38412C4.98956 3.41417 4.99055 3.44373 4.99256 3.47279L4.9049 3.66062L4.7331 4.02876L5.01859 4.10788L4.91492 4.32127L5.1323 4.53763L5.13679 4.54215L5.45036 4.85417L5.45184 4.85519L5.4899 4.89325H5.49043L5.49844 4.90176L5.55752 4.96037L5.62817 4.88923L5.62464 4.88574L5.56655 4.82764L5.03612 4.30071L5.11376 4.13994H5.11425L5.16084 4.04378L4.87383 3.96414L4.88385 3.94259L5.0181 3.6561C5.04716 3.79434 5.09774 3.92256 5.16585 4.03627C5.16987 4.04329 5.17386 4.04978 5.17837 4.0568C5.26003 4.18702 5.36419 4.29722 5.4849 4.37887L5.533 4.4079L5.56605 4.42794C5.69578 4.49908 5.84104 4.53863 5.9943 4.53863C6.14756 4.53863 6.28981 4.50007 6.41852 4.43044C6.69301 4.28269 6.90037 3.9962 6.97149 3.6501L7.11173 3.95063L7.11825 3.96414L6.83124 4.04378L6.95597 4.30071L6.42504 4.82863L6.36695 4.88623L6.36392 4.88923L6.43457 4.96037L6.50667 4.88824L6.54074 4.85469L6.78966 4.60726L6.79167 4.60525L6.85978 4.53763L6.86281 4.53463L7.07717 4.32127L6.9735 4.10788L7.25899 4.02876L7.08768 3.66263L6.99604 3.46478C6.99804 3.43823 6.99904 3.41117 6.99904 3.38412C6.99904 3.33855 6.99653 3.29297 6.99202 3.24889C7.24044 3.32803 7.75937 3.55142 8.06839 4.09588C8.27876 4.466 8.35989 4.91829 8.31181 5.4477C8.3093 5.47828 8.30581 5.50932 8.30179 5.54089C8.30179 5.54589 8.3013 5.5509 8.3003 5.55591C8.29678 5.58745 8.29227 5.62001 8.28726 5.65256C8.27777 5.71768 8.26623 5.7843 8.25272 5.85192C8.21915 6.02472 8.17308 6.20454 8.11446 6.39184C8.11446 6.39184 8.11397 6.39487 8.11297 6.39636C8.10896 6.41089 8.10444 6.42492 8.09996 6.43942V6.44044C8.09544 6.45445 8.09093 6.46799 8.08592 6.482C8.08342 6.49053 8.08091 6.49854 8.07791 6.50704C8.06839 6.53561 8.05887 6.56365 8.04885 6.59271C8.03033 6.64679 8.01079 6.7004 7.99026 6.75497L8.0764 6.78703L8.08843 6.79155L8.13752 6.81007L8.17759 6.82509C8.17908 6.8211 8.18059 6.81659 8.18208 6.81257C8.18359 6.80957 8.18458 6.80707 8.1856 6.80407C8.21714 6.71842 8.2467 6.63476 8.27375 6.55212C8.34186 6.34577 8.39597 6.14694 8.43604 5.95559C8.45255 5.87947 8.46609 5.80483 8.47759 5.73122C8.48312 5.69965 8.48761 5.6691 8.49163 5.63856C8.49212 5.63454 8.49262 5.63052 8.49314 5.62703C8.49763 5.59246 8.50214 5.55842 8.50566 5.52484C8.56926 4.92732 8.48111 4.41542 8.24119 3.99419H8.2407ZM3.94824 6.61624C3.93872 6.59021 3.9297 6.56464 3.9207 6.5391V6.53811L3.91018 6.50506C3.90716 6.49755 3.90465 6.48951 3.90267 6.482C3.89315 6.45445 3.88462 6.4269 3.87661 6.39988C3.87562 6.39886 3.87562 6.39787 3.87562 6.39685C3.8746 6.39886 3.8741 6.39988 3.8741 6.40186C3.86059 6.45096 3.84857 6.50005 3.83855 6.54962C3.83756 6.55413 3.83704 6.55864 3.83604 6.56365C3.82052 6.64228 3.80949 6.72192 3.80299 6.80357C3.80448 6.80809 3.80599 6.81208 3.808 6.81659C3.80899 6.81959 3.81001 6.82209 3.811 6.82509L3.8626 6.80558L3.91269 6.78703L3.92469 6.78252L3.99833 6.75497C3.9808 6.70841 3.96426 6.66182 3.94824 6.61624Z" fill="#244C0F"/>
<path d="M4.77315 5.22667L4.72656 4.85302C4.72656 4.85302 4.88486 4.66368 5.13279 4.53748L5.45134 4.86502L4.77315 5.22667Z" fill="url(#paint27_linear_290_840)"/>
<path d="M7.21676 5.22666L7.26335 4.85299C7.26335 4.85299 7.14364 4.6822 6.86114 4.53345L6.53857 4.86501L7.21676 5.22666Z" fill="url(#paint28_linear_290_840)"/>
<path d="M6.8616 3.112C6.8616 3.112 7.6099 3.28579 7.93346 3.75812C8.25704 4.23045 8.38625 4.67923 8.40981 5.32334C8.43334 5.96745 8.11628 6.72228 8.11628 6.72228C8.11628 6.72228 8.18992 6.12674 7.63646 5.64189C7.083 5.15706 6.60365 4.88307 6.48396 4.88607C6.36425 4.88909 7.01387 4.27952 7.01387 4.27952L6.83154 4.04362L7.19269 3.9239L6.93774 3.49717L6.86212 3.112H6.8616Z" fill="url(#paint29_radial_290_840)"/>
<path d="M7.02967 3.64463C7.02967 3.64463 8.41408 3.96519 8.02841 6.25315L8.12008 6.62429C8.12008 6.62429 8.35799 6.24164 8.40907 5.32304C8.46015 4.40444 8.06047 3.91109 7.79251 3.60506C7.52454 3.29903 6.94202 3.16278 6.94202 3.16278L6.93701 3.49737L7.02967 3.64463Z" fill="url(#paint30_radial_290_840)"/>
<path d="M5.54197 4.88607H5.53396C5.52246 4.88607 5.50793 4.88857 5.4904 4.89309H5.4899C5.4353 4.90861 5.35266 4.94617 5.24896 5.00578C5.24797 5.00628 5.24698 5.0068 5.24547 5.0073C5.12427 5.0764 4.97401 5.17459 4.80671 5.29879C4.76562 5.32934 4.72305 5.3619 4.67998 5.39596H4.67949C4.58432 5.4706 4.48514 5.55275 4.38348 5.64189C4.25325 5.7561 4.15759 5.8763 4.08796 5.99351C4.08796 5.99351 4.08778 5.99383 4.08747 5.9945C4.01182 6.12123 3.96624 6.24395 3.93919 6.35163C3.92518 6.40723 3.91616 6.4588 3.91016 6.5049C3.89312 6.63713 3.90363 6.72228 3.90363 6.72228C3.90363 6.72228 3.88762 6.68369 3.86257 6.61657C3.86257 6.61657 3.86208 6.61509 3.86156 6.61459C3.85456 6.59505 3.84705 6.57301 3.83852 6.54948C3.84854 6.49989 3.86056 6.45079 3.87408 6.40222C3.87408 6.39971 3.8746 6.39869 3.87559 6.39671C3.89562 6.32257 3.91968 6.25094 3.94772 6.18082C4.02836 5.97598 4.13904 5.78565 4.27378 5.61635H4.27428C4.32136 5.55674 4.37195 5.49963 4.42503 5.44556H4.42556C4.43106 5.43953 4.43706 5.43353 4.44309 5.42753C4.47815 5.39247 4.5142 5.35889 4.55127 5.32683H4.55176C4.56228 5.31734 4.57229 5.30831 4.58281 5.29981C4.63141 5.25922 4.68149 5.22016 4.73359 5.18409C4.65144 5.19713 4.57081 5.21163 4.49216 5.22718C4.27929 5.26874 4.07996 5.31883 3.89411 5.37794C3.8195 5.40048 3.74737 5.42552 3.67725 5.45156C3.65521 5.45956 3.63316 5.4681 3.61112 5.47709C3.60862 5.42503 3.60812 5.37392 3.61013 5.32284C3.63366 4.67923 3.76339 4.22993 4.08645 3.75812C4.23822 3.53675 4.48263 3.38096 4.70051 3.27778C4.70552 3.27528 4.71053 3.27327 4.71504 3.27129C4.71705 3.27027 4.71856 3.26928 4.72055 3.26878C4.95846 3.15859 5.15831 3.112 5.15831 3.112L5.08269 3.49717L5.05313 3.54624L4.82724 3.9239L4.88385 3.94245L5.16582 4.0361L5.18836 4.04362L5.17835 4.05663L5.11425 4.13928H5.11373L5.00604 4.27952C5.00604 4.27952 5.4413 4.68823 5.53297 4.8345C5.55251 4.86254 5.55752 4.88158 5.54197 4.88607Z" fill="url(#paint31_radial_290_840)"/>
<path d="M5.49854 4.33814C5.49854 4.33814 6.04448 4.47238 6.23633 4.39175C6.42814 4.31109 6.50077 4.26251 6.50077 4.26251L6.23781 4.79943L5.73895 4.82949L5.49903 4.33814H5.49854Z" fill="#FFF6F6"/>
<path d="M5.02546 3.49719L4.77002 4.00756L5.12762 4.04364L4.94882 4.27954L5.47875 4.88609L5.76725 4.88559L5.46221 4.26251L5.02546 3.49719Z" fill="url(#paint32_radial_290_840)"/>
<path d="M6.9371 3.49719L7.19254 4.00756L6.83491 4.04364L7.01371 4.27954L6.48331 4.88609L6.19531 4.88559L6.50032 4.26251L6.9371 3.49719Z" fill="url(#paint33_radial_290_840)"/>
<path d="M5.99423 4.35414C6.4357 4.35414 6.79362 3.91956 6.79362 3.38347C6.79362 2.84738 6.4357 2.41278 5.99423 2.41278C5.55274 2.41278 5.19482 2.84738 5.19482 3.38347C5.19482 3.91956 5.55274 4.35414 5.99423 4.35414Z" fill="url(#paint34_radial_290_840)"/>
<path d="M3.95915 6.25301L3.93361 6.35569L3.90256 6.48193L3.8675 6.62418C3.8675 6.62418 3.86599 6.62167 3.86249 6.61666C3.86249 6.61614 3.862 6.61515 3.86148 6.61466C3.85597 6.60414 3.84697 6.5876 3.83594 6.56355C3.83695 6.55854 3.83745 6.55406 3.83844 6.54954C3.84846 6.49995 3.86049 6.45086 3.874 6.40228C3.874 6.39978 3.87452 6.39879 3.87551 6.39678C3.89555 6.32264 3.9196 6.25103 3.94764 6.18091C3.95114 6.20444 3.95515 6.22849 3.95915 6.25301Z" fill="url(#paint35_radial_290_840)"/>
<path d="M5.05074 3.49737L5.0372 3.51889L4.95808 3.64463C4.95808 3.64463 4.95558 3.64513 4.95107 3.64612C4.94306 3.64862 4.92701 3.65314 4.90497 3.66065C4.69562 3.73377 3.93881 4.08689 3.89423 5.37814C3.8196 5.40068 3.74747 5.42572 3.67734 5.45175C3.6553 5.45976 3.63328 5.46829 3.61124 5.47729C3.60422 5.4798 3.59671 5.4823 3.58969 5.48582C3.58518 5.43373 3.58119 5.37913 3.57819 5.32304C3.52708 4.40444 3.92679 3.91109 4.19475 3.60506C4.32347 3.4578 4.52582 3.34962 4.70063 3.27798C4.70564 3.27548 4.71065 3.27347 4.71516 3.27149C4.71714 3.27047 4.71866 3.26948 4.72067 3.26898C4.89947 3.19685 5.04521 3.16278 5.04521 3.16278L5.05074 3.49737Z" fill="url(#paint36_radial_290_840)"/>
<path d="M5.53628 4.88606L5.53378 4.88705C5.53378 4.88705 5.52976 4.88856 5.52676 4.89005C5.52026 4.89255 5.51074 4.89657 5.49822 4.90158C5.44962 4.92112 5.35847 4.95868 5.24878 5.00574C5.24778 5.00626 5.24677 5.00676 5.24528 5.00726C5.10853 5.06637 4.94275 5.14098 4.794 5.21611C4.78698 5.21963 4.77997 5.22312 4.77295 5.22665L4.76995 5.22813C4.73038 5.24817 4.69281 5.2682 4.65725 5.28824H4.65676C4.63521 5.30026 4.61468 5.31229 4.59514 5.32379C4.53253 5.36037 4.47994 5.39593 4.44287 5.42749C4.47793 5.39243 4.51401 5.35886 4.55108 5.32682H4.55158C4.56209 5.3173 4.57211 5.30827 4.58262 5.29977C4.63122 5.2592 4.68131 5.22013 4.73338 5.18407C4.65125 5.19709 4.57059 5.21162 4.49197 5.22714C4.53105 5.12295 4.60117 4.98923 4.72638 4.85298C4.72638 4.85298 4.72688 4.85199 4.72889 4.85047C4.73038 4.84849 4.73238 4.84648 4.7339 4.84447C4.73489 4.84296 4.7364 4.84147 4.73789 4.83996C4.80903 4.76483 4.89668 4.6897 5.00585 4.61908C5.04642 4.59253 5.09001 4.56699 5.13658 4.54194C5.1461 4.53693 5.15562 4.53193 5.16514 4.52692L5.49271 4.84398L5.53628 4.88606Z" fill="#244C0F"/>
<path d="M7.56614 5.51313C7.56614 5.51313 7.53359 4.88204 6.84038 4.52692L6.46924 4.88606C6.46924 4.88606 7.33073 5.31179 7.56614 5.51313Z" fill="#244C0F"/>
<path d="M5.29107 2.92134C5.29107 2.92134 5.29258 2.91782 5.29357 2.91581C5.29357 2.91581 5.29357 2.91482 5.29457 2.91432C5.43283 2.6253 5.69427 2.42947 5.9943 2.42947C6.29432 2.42947 6.55577 2.6253 6.6935 2.91432C6.694 2.91482 6.6945 2.91581 6.6945 2.91581C6.69551 2.91782 6.6965 2.91933 6.697 2.92134C6.76162 3.05856 6.79819 3.21633 6.79819 3.38412C6.79819 3.55191 6.76162 3.70919 6.697 3.84643C6.6965 3.84844 6.69551 3.84993 6.6945 3.85194C6.6945 3.85194 6.694 3.85296 6.6935 3.85345C6.55577 4.14244 6.2938 4.33828 5.9943 4.33828C5.69477 4.33828 5.43283 4.14244 5.29457 3.85345C5.29407 3.85296 5.29357 3.85194 5.29357 3.85194C5.29258 3.84993 5.29157 3.84844 5.29107 3.84643C5.22645 3.70919 5.1899 3.55191 5.1899 3.38412C5.1899 3.21633 5.22645 3.05856 5.29107 2.92134ZM8.2407 3.99419C7.84399 3.29848 7.16132 3.0801 6.94944 3.02751C6.81872 2.56421 6.44007 2.22913 5.9943 2.22913C5.54852 2.22913 5.16987 2.56421 5.03863 3.02751C4.82677 3.0801 4.14408 3.29848 3.7479 3.99419C3.50698 4.41643 3.41933 4.93032 3.48392 5.52936C3.51849 5.51383 3.55355 5.4993 3.58963 5.48579C3.59662 5.48227 3.60413 5.47976 3.61115 5.47726C3.63319 5.46826 3.65523 5.45973 3.67728 5.45172C3.62818 4.9208 3.70931 4.46702 3.9202 4.09588C4.22923 3.55142 4.74812 3.32803 4.99655 3.24889C4.99206 3.29297 4.98956 3.33855 4.98956 3.38412C4.98956 3.41417 4.99055 3.44373 4.99256 3.47279L4.9049 3.66062L4.7331 4.02876L5.01859 4.10788L4.91492 4.32127L5.1323 4.53763L5.13679 4.54215L5.45036 4.85417L5.45184 4.85519L5.4899 4.89325H5.49043L5.49844 4.90176L5.55752 4.96037L5.62817 4.88923L5.62464 4.88574L5.56655 4.82764L5.03612 4.30071L5.11376 4.13994H5.11425L5.16084 4.04378L4.87383 3.96414L4.88385 3.94259L5.0181 3.6561C5.04716 3.79434 5.09774 3.92256 5.16585 4.03627C5.16987 4.04329 5.17386 4.04978 5.17837 4.0568C5.26003 4.18702 5.36419 4.29722 5.4849 4.37887L5.533 4.4079L5.56605 4.42794C5.69578 4.49908 5.84104 4.53863 5.9943 4.53863C6.14756 4.53863 6.28981 4.50007 6.41852 4.43044C6.69301 4.28269 6.90037 3.9962 6.97149 3.6501L7.11173 3.95063L7.11825 3.96414L6.83124 4.04378L6.95597 4.30071L6.42504 4.82863L6.36695 4.88623L6.36392 4.88923L6.43457 4.96037L6.50667 4.88824L6.54074 4.85469L6.78966 4.60726L6.79167 4.60525L6.85978 4.53763L6.86281 4.53463L7.07717 4.32127L6.9735 4.10788L7.25899 4.02876L7.08768 3.66263L6.99604 3.46478C6.99804 3.43823 6.99904 3.41117 6.99904 3.38412C6.99904 3.33855 6.99653 3.29297 6.99202 3.24889C7.24044 3.32803 7.75937 3.55142 8.06839 4.09588C8.27876 4.466 8.35989 4.91829 8.31181 5.4477C8.3093 5.47828 8.30581 5.50932 8.30179 5.54089C8.30179 5.54589 8.3013 5.5509 8.3003 5.55591C8.29678 5.58745 8.29227 5.62001 8.28726 5.65256C8.27777 5.71768 8.26623 5.7843 8.25272 5.85192C8.21915 6.02472 8.17308 6.20454 8.11446 6.39184C8.11446 6.39184 8.11397 6.39487 8.11297 6.39636C8.10896 6.41089 8.10444 6.42492 8.09996 6.43942V6.44044C8.09544 6.45445 8.09093 6.46799 8.08592 6.482C8.08342 6.49053 8.08091 6.49854 8.07791 6.50704C8.06839 6.53561 8.05887 6.56365 8.04885 6.59271C8.03033 6.64679 8.01079 6.7004 7.99026 6.75497L8.0764 6.78703L8.08843 6.79155L8.13752 6.81007L8.17759 6.82509C8.17908 6.8211 8.18059 6.81659 8.18208 6.81257C8.18359 6.80957 8.18458 6.80707 8.1856 6.80407C8.21714 6.71842 8.2467 6.63476 8.27375 6.55212C8.34186 6.34577 8.39597 6.14694 8.43604 5.95559C8.45255 5.87947 8.46609 5.80483 8.47759 5.73122C8.48312 5.69965 8.48761 5.6691 8.49163 5.63856C8.49212 5.63454 8.49262 5.63052 8.49314 5.62703C8.49763 5.59246 8.50214 5.55842 8.50566 5.52484C8.56926 4.92732 8.48111 4.41542 8.24119 3.99419H8.2407ZM3.94824 6.61624C3.93872 6.59021 3.9297 6.56464 3.9207 6.5391V6.53811L3.91018 6.50506C3.90716 6.49755 3.90465 6.48951 3.90267 6.482C3.89315 6.45445 3.88462 6.4269 3.87661 6.39988C3.87562 6.39886 3.87562 6.39787 3.87562 6.39685C3.8746 6.39886 3.8741 6.39988 3.8741 6.40186C3.86059 6.45096 3.84857 6.50005 3.83855 6.54962C3.83756 6.55413 3.83704 6.55864 3.83604 6.56365C3.82052 6.64228 3.80949 6.72192 3.80299 6.80357C3.80448 6.80809 3.80599 6.81208 3.808 6.81659C3.80899 6.81959 3.81001 6.82209 3.811 6.82509L3.8626 6.80558L3.91269 6.78703L3.92469 6.78252L3.99833 6.75497C3.9808 6.70841 3.96426 6.66182 3.94824 6.61624Z" fill="#244C0F"/>
<path d="M4.77315 5.22667L4.72656 4.85302C4.72656 4.85302 4.88486 4.66368 5.13279 4.53748L5.45134 4.86502L4.77315 5.22667Z" fill="url(#paint37_linear_290_840)"/>
<path d="M7.21676 5.22666L7.26335 4.85299C7.26335 4.85299 7.14364 4.6822 6.86114 4.53345L6.53857 4.86501L7.21676 5.22666Z" fill="url(#paint38_linear_290_840)"/>
<path d="M8.18605 6.81373C8.18553 6.81024 8.18553 6.80671 8.18504 6.80371C8.17953 6.73709 8.17152 6.67198 8.15999 6.60788C8.15749 6.59285 8.15498 6.57783 8.15198 6.5633C8.14098 6.50669 8.12793 6.4511 8.11241 6.3965C8.11191 6.3935 8.11142 6.39149 8.1104 6.38898C8.09089 6.31787 8.06733 6.24824 8.04028 6.18063C7.95865 5.97277 7.84645 5.78095 7.70871 5.60964C7.66212 5.55154 7.61204 5.49545 7.55945 5.44234H7.55895C7.55895 5.44234 7.55746 5.43984 7.55595 5.43884C7.51739 5.39927 7.4768 5.36171 7.43524 5.32516C7.42421 5.31564 7.4132 5.30611 7.40219 5.29709C7.35359 5.25652 7.30301 5.21797 7.25091 5.18189L7.25042 5.18139C7.24191 5.17539 7.23388 5.16937 7.22488 5.16337C7.02051 5.02464 6.79212 4.91995 6.54719 4.85583C6.54469 4.85533 6.54268 4.85484 6.5407 4.85434C6.53217 4.85233 6.52416 4.85032 6.51615 4.84831C6.51414 4.84782 6.51164 4.84732 6.50963 4.84683C6.50063 4.84432 6.4916 4.84231 6.48258 4.8408C6.46356 4.83579 6.44451 4.8318 6.42498 4.82828C6.36338 4.81576 6.30127 4.80624 6.23767 4.79924H6.23715C6.15753 4.79022 6.07638 4.78571 5.99423 4.78571C5.90358 4.78571 5.81391 4.79121 5.72626 4.80175H5.72527C5.67169 4.80874 5.61858 4.81727 5.56651 4.82729C5.55547 4.82979 5.54397 4.8318 5.53293 4.83431C5.51942 4.83731 5.5064 4.84031 5.49286 4.8438C5.47885 4.84683 5.46482 4.84983 5.45078 4.85332H5.45029C5.44778 4.85382 5.44528 4.85484 5.44228 4.85533C5.19784 4.91893 4.96945 5.02362 4.76511 5.16185C4.75458 5.16838 4.74406 5.17589 4.73355 5.1834C4.68145 5.21945 4.63137 5.25853 4.58279 5.2991C4.57228 5.30763 4.56226 5.31663 4.55172 5.32615H4.55123C4.51416 5.35821 4.47811 5.39176 4.44305 5.42682C4.43705 5.43284 4.43102 5.43884 4.42551 5.44484H4.42502C4.37193 5.49895 4.32132 5.55605 4.27426 5.61566H4.27374C4.13903 5.78494 4.02831 5.97527 3.94768 6.18013C3.91964 6.25025 3.89558 6.32189 3.87555 6.39551C3.87555 6.39551 3.87406 6.399 3.87406 6.40101C3.86052 6.45011 3.84852 6.49918 3.83851 6.54877C3.83749 6.55328 3.83699 6.55779 3.836 6.5628C3.82045 6.64143 3.80944 6.72107 3.80292 6.80272C3.80243 6.80823 3.80193 6.81324 3.80193 6.81824C3.79742 6.87284 3.79541 6.92844 3.79541 6.98403C3.79541 7.18338 3.82197 7.37671 3.87205 7.56052C3.87205 7.56253 3.87305 7.56504 3.87406 7.56704C3.87607 7.57505 3.87805 7.58257 3.88056 7.59058C3.88108 7.59308 3.88207 7.59558 3.88306 7.59809C3.88507 7.60662 3.88758 7.61512 3.89058 7.62313C3.89611 7.64267 3.90211 7.66221 3.90863 7.68123H3.90912C3.92866 7.74084 3.9512 7.79945 3.97572 7.85653C3.98175 7.86958 3.98725 7.88309 3.99325 7.89561C3.99325 7.89561 3.99378 7.89561 3.99378 7.8966C4.05837 8.03684 4.13652 8.16908 4.22767 8.2913L4.22817 8.29179C4.25871 8.33338 4.29078 8.37394 4.32485 8.41302C4.33285 8.42251 4.34086 8.43204 4.34989 8.44156C4.3579 8.45108 4.3664 8.4606 4.37493 8.4696C4.38495 8.48064 4.39447 8.49115 4.40449 8.50166V8.50216C4.4095 8.50717 4.41398 8.51218 4.41899 8.51718H4.41951C4.59231 8.6945 4.79464 8.84275 5.01805 8.95396C5.03858 8.96398 5.05911 8.97399 5.07965 8.98349C5.14476 9.01304 5.21188 9.0401 5.28049 9.06363C5.28852 9.06665 5.29653 9.06916 5.30504 9.07166C5.30804 9.07315 5.31054 9.07417 5.31406 9.07466H5.31456C5.36365 9.09118 5.41374 9.10571 5.46482 9.11823C5.53593 9.13576 5.60856 9.14979 5.6822 9.16031C5.78386 9.17484 5.88756 9.18235 5.99324 9.18235C6.09891 9.18235 6.21211 9.17434 6.31831 9.1583H6.3188C6.39294 9.14729 6.46557 9.13276 6.53668 9.11473C6.58776 9.10119 6.63837 9.08669 6.68793 9.06965H6.68845C6.68845 9.06965 6.69346 9.06814 6.69597 9.06715C6.70998 9.06264 6.72401 9.05763 6.73752 9.05212L6.73904 9.05163C6.79914 9.03057 6.85724 9.00655 6.91434 8.97999C6.93487 8.97047 6.9554 8.96045 6.97544 8.95044C7.18781 8.84377 7.38065 8.70402 7.54692 8.53771C7.56145 8.52321 7.57598 8.50818 7.59051 8.49316C7.59101 8.49264 7.59151 8.49164 7.59151 8.49164C7.60202 8.48113 7.61154 8.4701 7.62106 8.45909C7.62907 8.45108 7.63658 8.44255 7.6436 8.43405C7.65312 8.42403 7.66212 8.41351 7.67065 8.403C7.70371 8.36442 7.73527 8.32435 7.76532 8.28329V8.28279C7.83644 8.18611 7.89954 8.08393 7.95414 7.97525C7.95464 7.97476 7.95464 7.97374 7.95513 7.97324C7.95565 7.97324 7.95565 7.97275 7.95565 7.97275C7.97517 7.93417 7.99371 7.89511 8.01075 7.85554C8.03527 7.79995 8.05682 7.74284 8.07636 7.68475C8.08337 7.66422 8.09037 7.64317 8.09639 7.62214C8.0989 7.61562 8.10091 7.6086 8.10239 7.60211C8.10341 7.59911 8.1044 7.59608 8.1049 7.59308C8.1074 7.58557 8.10941 7.57855 8.11142 7.57104C8.11442 7.56003 8.11742 7.54902 8.12042 7.53848C8.16651 7.36119 8.19106 7.17535 8.19106 6.98403C8.19106 6.92643 8.18905 6.86932 8.18454 6.81324L8.18605 6.81373ZM5.99423 8.9825C4.89231 8.9825 3.99576 8.08644 3.99576 6.98452C3.99576 6.96399 3.99628 6.94346 3.99678 6.92293C3.99727 6.90738 3.99777 6.89186 3.99878 6.87634C3.99878 6.87384 3.99878 6.87084 3.99928 6.86833C3.99978 6.85581 4.00077 6.84329 4.00178 6.83077C4.00327 6.80671 4.00578 6.78269 4.0088 6.75913C4.01029 6.74512 4.0118 6.73158 4.01381 6.71758C4.01579 6.70004 4.0183 6.68251 4.02132 6.66548C4.02432 6.64745 4.02732 6.62891 4.03082 6.61088C4.03434 6.59285 4.03784 6.57532 4.04185 6.5573C4.04535 6.54026 4.04937 6.52273 4.05388 6.5057C4.05586 6.49769 4.05787 6.48916 4.05988 6.48115C4.06789 6.4511 4.0759 6.42104 4.08542 6.39201C4.09043 6.37597 4.09544 6.35995 4.10094 6.34443C4.11046 6.31537 4.12098 6.28683 4.13201 6.25876C4.14503 6.2262 4.15854 6.19417 4.17258 6.1631C4.18411 6.13805 4.19611 6.11301 4.20863 6.08797C4.21815 6.06944 4.22767 6.0509 4.23769 6.03287C4.24619 6.01636 4.25522 6.00031 4.26474 5.98479C4.27025 5.97478 4.27625 5.96476 4.28227 5.95524C4.29127 5.93922 4.30129 5.9237 4.31131 5.90815C4.32834 5.88112 4.34637 5.85457 4.36491 5.82853C4.37744 5.811 4.39045 5.79347 4.40347 5.77644C4.41398 5.7624 4.42502 5.74839 4.43603 5.73485C4.44855 5.71884 4.46157 5.70331 4.47461 5.68829C4.48812 5.67224 4.50164 5.65672 4.51567 5.6417C4.52918 5.62667 4.54272 5.61214 4.55673 5.59813C4.57176 5.58159 4.5878 5.56607 4.60382 5.55055C4.61334 5.54152 4.62286 5.53302 4.63186 5.52399C4.65591 5.50145 4.68046 5.47941 4.70551 5.45838C4.72755 5.43984 4.74957 5.42181 4.77211 5.40428C4.77962 5.39828 4.78713 5.39278 4.79465 5.38724C4.8217 5.36671 4.84974 5.34668 4.87781 5.32766C4.89983 5.31264 4.92237 5.29811 4.94491 5.28407C4.96645 5.27056 4.9885 5.25754 5.01104 5.24502C5.03256 5.23299 5.05411 5.22097 5.07615 5.20996C5.08567 5.20443 5.09569 5.19942 5.10571 5.19493C5.11922 5.18791 5.13273 5.18139 5.14627 5.17539C5.1613 5.16788 5.17682 5.16086 5.19234 5.15434C5.20938 5.14683 5.22591 5.13931 5.24292 5.13282C5.25597 5.12731 5.26948 5.12178 5.28299 5.11678C5.30003 5.11028 5.31706 5.10425 5.3341 5.09825C5.35914 5.08923 5.38468 5.08072 5.41022 5.07321C5.42274 5.0687 5.43526 5.0652 5.44778 5.0622C5.47935 5.05318 5.51141 5.04467 5.54344 5.03716C5.57251 5.03064 5.60206 5.02464 5.63211 5.01911C5.64164 5.01712 5.65113 5.01561 5.66065 5.0141C5.6792 5.0111 5.69772 5.0081 5.71625 5.00559C5.73829 5.0021 5.76083 4.99959 5.78337 4.99758C5.78838 4.99657 5.79338 4.99607 5.79839 4.99607C5.82245 4.99307 5.84647 4.99106 5.87102 4.99007C5.88805 4.98905 5.90459 4.98806 5.9216 4.98757C5.94565 4.98655 5.9702 4.98605 5.99423 4.98605C7.09614 4.98605 7.9922 5.88261 7.9922 6.98452C7.9922 8.08644 7.09614 8.9825 5.99423 8.9825Z" fill="#737373"/>
<path d="M7.99254 6.98474C7.99254 8.08665 7.09648 8.98271 5.99456 8.98271C4.89265 8.98271 3.99609 8.08665 3.99609 6.98474C3.99609 5.88282 4.89265 4.98627 5.99456 4.98627C7.09648 4.98627 7.99254 5.88282 7.99254 6.98474Z" fill="white"/>
<path d="M6.74002 5.55676H5.40468L5.30253 7.07088C5.30253 7.07088 5.54493 6.95168 5.80439 6.95168C6.06385 6.95168 6.28071 7.01528 6.28071 7.45355C6.28071 7.89181 5.67265 8.08315 5.20885 7.89582L5.1748 8.24442C5.1748 8.24442 6.82465 8.56748 6.82465 7.32582C6.82465 6.42027 5.83794 6.57752 5.83794 6.57752L5.89754 6.00754H6.731L6.7395 5.55676H6.74002Z" fill="#E4A545"/>
</g>
</g>
<defs>
<radialGradient id="paint0_radial_290_840" cx="0" cy="0" r="1" gradientUnits="userSpaceOnUse" gradientTransform="translate(3.40947 6.6437) scale(0.949148)">
<stop stop-color="#E3F352"/>
<stop offset="0.21" stop-color="#DDE248"/>
<stop offset="0.59" stop-color="#D5CB3B"/>
<stop offset="0.83" stop-color="#D2C337"/>
</radialGradient>
<radialGradient id="paint1_radial_290_840" cx="0" cy="0" r="1" gradientUnits="userSpaceOnUse" gradientTransform="translate(2.9348 6.22131) scale(3.53815)">
<stop stop-color="#E3F352"/>
<stop offset="0.11" stop-color="#DDE248"/>
<stop offset="0.32" stop-color="#D5CB3B"/>
<stop offset="0.45" stop-color="#D2C337"/>
</radialGradient>
<radialGradient id="paint2_radial_290_840" cx="0" cy="0" r="1" gradientUnits="userSpaceOnUse" gradientTransform="translate(2.27413 7.56328) scale(2.47229)">
<stop stop-color="#E3F352"/>
<stop offset="0.21" stop-color="#DDE248"/>
<stop offset="0.59" stop-color="#D5CB3B"/>
<stop offset="0.83" stop-color="#D2C337"/>
</radialGradient>
<radialGradient id="paint3_radial_290_840" cx="0" cy="0" r="1" gradientUnits="userSpaceOnUse" gradientTransform="translate(2.12246 7.51907) scale(2.20884)">
<stop stop-color="#E3F352"/>
<stop offset="0.11" stop-color="#DDE248"/>
<stop offset="0.32" stop-color="#D5CB3B"/>
<stop offset="0.45" stop-color="#D2C337"/>
</radialGradient>
<radialGradient id="paint4_radial_290_840" cx="0" cy="0" r="1" gradientUnits="userSpaceOnUse" gradientTransform="translate(4.27693 5.55242) scale(0.548953)">
<stop stop-color="#E3F352"/>
<stop offset="0.11" stop-color="#DDE248"/>
<stop offset="0.32" stop-color="#D5CB3B"/>
<stop offset="0.45" stop-color="#D2C337"/>
</radialGradient>
<radialGradient id="paint5_radial_290_840" cx="0" cy="0" r="1" gradientUnits="userSpaceOnUse" gradientTransform="translate(4.11184 9.3033) scale(2.1302)">
<stop stop-color="#E3F352"/>
<stop offset="0.11" stop-color="#DDE248"/>
<stop offset="0.32" stop-color="#D5CB3B"/>
<stop offset="0.45" stop-color="#D2C337"/>
</radialGradient>
<linearGradient id="paint6_linear_290_840" x1="4.63882" y1="8.23081" x2="3.31243" y2="9.92433" gradientUnits="userSpaceOnUse">
<stop stop-color="#E3F352"/>
<stop offset="0.11" stop-color="#DEED4F"/>
<stop offset="0.24" stop-color="#D3DD48"/>
<stop offset="0.39" stop-color="#BFC33D"/>
<stop offset="0.55" stop-color="#A49F2D"/>
<stop offset="0.67" stop-color="#8E8120"/>
</linearGradient>
<linearGradient id="paint7_linear_290_840" x1="4.32243" y1="7.65999" x2="2.81429" y2="7.64898" gradientUnits="userSpaceOnUse">
<stop stop-color="#E3F352"/>
<stop offset="0.14" stop-color="#DEED4F"/>
<stop offset="0.33" stop-color="#D3DD48"/>
<stop offset="0.53" stop-color="#BFC33D"/>
<stop offset="0.75" stop-color="#A49F2D"/>
<stop offset="0.9" stop-color="#8E8120"/>
</linearGradient>
<radialGradient id="paint8_radial_290_840" cx="0" cy="0" r="1" gradientUnits="userSpaceOnUse" gradientTransform="translate(2.41648 8.41868) scale(1.70997)">
<stop stop-color="#E5E52C"/>
<stop offset="0.21" stop-color="#C5C11D"/>
<stop offset="0.66" stop-color="#877A00"/>
</radialGradient>
<radialGradient id="paint9_radial_290_840" cx="0" cy="0" r="1" gradientUnits="userSpaceOnUse" gradientTransform="translate(3.40578 9.69305) rotate(60.75) scale(5.18351)">
<stop stop-color="#E3F352"/>
<stop offset="0.11" stop-color="#DDE248"/>
<stop offset="0.32" stop-color="#D5CB3B"/>
<stop offset="0.45" stop-color="#D2C337"/>
</radialGradient>
<radialGradient id="paint10_radial_290_840" cx="0" cy="0" r="1" gradientUnits="userSpaceOnUse" gradientTransform="translate(4.16039 7.57097) rotate(-135.44) scale(1.87626 1.76368)">
<stop stop-color="#E3F352"/>
<stop offset="0.14" stop-color="#DEED4F"/>
<stop offset="0.33" stop-color="#D3DD48"/>
<stop offset="0.53" stop-color="#BFC33D"/>
<stop offset="0.75" stop-color="#A49F2D"/>
<stop offset="0.9" stop-color="#8E8120"/>
</radialGradient>
<radialGradient id="paint11_radial_290_840" cx="0" cy="0" r="1" gradientUnits="userSpaceOnUse" gradientTransform="translate(4.1399 7.59149) scale(1.16552)">
<stop stop-color="#E3F352"/>
<stop offset="0.14" stop-color="#DEED4F"/>
<stop offset="0.33" stop-color="#D3DD48"/>
<stop offset="0.53" stop-color="#BFC33D"/>
<stop offset="0.75" stop-color="#A49F2D"/>
<stop offset="0.9" stop-color="#8E8120"/>
</radialGradient>
<radialGradient id="paint12_radial_290_840" cx="0" cy="0" r="1" gradientUnits="userSpaceOnUse" gradientTransform="translate(8.87888 7.36283) rotate(-60.75) scale(3.72347)">
<stop stop-color="#1DB1EF"/>
<stop offset="0.29" stop-color="#189CEC"/>
<stop offset="0.49" stop-color="#1794EB"/>
</radialGradient>
<radialGradient id="paint13_radial_290_840" cx="0" cy="0" r="1" gradientUnits="userSpaceOnUse" gradientTransform="translate(9.65224 7.80282) rotate(-60.75) scale(5.1835)">
<stop stop-color="#1DD1EF"/>
<stop offset="0.18" stop-color="#1AB3ED"/>
<stop offset="0.37" stop-color="#179CEB"/>
<stop offset="0.49" stop-color="#1794EB"/>
</radialGradient>
<radialGradient id="paint14_radial_290_840" cx="0" cy="0" r="1" gradientUnits="userSpaceOnUse" gradientTransform="translate(7.83008 9.23506) rotate(119.25) scale(2.12018)">
<stop stop-color="#1DB1EF"/>
<stop offset="0.29" stop-color="#189CEC"/>
<stop offset="0.49" stop-color="#1794EB"/>
</radialGradient>
<linearGradient id="paint15_linear_290_840" x1="7.36092" y1="8.23026" x2="8.68747" y2="9.92425" gradientUnits="userSpaceOnUse">
<stop stop-color="#67ACE1"/>
<stop offset="0.17" stop-color="#5494C9"/>
<stop offset="0.63" stop-color="#23598E"/>
<stop offset="0.85" stop-color="#114277"/>
</linearGradient>
<linearGradient id="paint16_linear_290_840" x1="8.05622" y1="7.81364" x2="9.5198" y2="7.61321" gradientUnits="userSpaceOnUse">
<stop stop-color="#67ACE1"/>
<stop offset="0.17" stop-color="#5494C9"/>
<stop offset="0.63" stop-color="#23598E"/>
<stop offset="0.85" stop-color="#114277"/>
</linearGradient>
<radialGradient id="paint17_radial_290_840" cx="0" cy="0" r="1" gradientUnits="userSpaceOnUse" gradientTransform="translate(9.14809 8.45091) scale(1.46204)">
<stop stop-color="#67ACE1"/>
<stop offset="0.17" stop-color="#5494C9"/>
<stop offset="0.63" stop-color="#23598E"/>
<stop offset="0.85" stop-color="#114277"/>
</radialGradient>
<radialGradient id="paint18_radial_290_840" cx="0" cy="0" r="1" gradientUnits="userSpaceOnUse" gradientTransform="translate(8.59362 9.69303) rotate(119.25) scale(5.1835)">
<stop stop-color="#1DD1EF"/>
<stop offset="0.18" stop-color="#1AB3ED"/>
<stop offset="0.37" stop-color="#179CEB"/>
<stop offset="0.49" stop-color="#1794EB"/>
</radialGradient>
<radialGradient id="paint19_radial_290_840" cx="0" cy="0" r="1" gradientUnits="userSpaceOnUse" gradientTransform="translate(7.083 4.30256) scale(3.72347 3.72347)">
<stop stop-color="#9FCB7E"/>
<stop offset="0.1" stop-color="#8AB66F"/>
<stop offset="0.32" stop-color="#659154"/>
<stop offset="0.49" stop-color="#4D7943"/>
<stop offset="0.6" stop-color="#45713D"/>
</radialGradient>
<radialGradient id="paint20_radial_290_840" cx="0" cy="0" r="1" gradientUnits="userSpaceOnUse" gradientTransform="translate(7.07676 3.41222) scale(5.1835 5.1835)">
<stop stop-color="#BFE0A4"/>
<stop offset="0.21" stop-color="#8BB078"/>
<stop offset="0.38" stop-color="#658D57"/>
<stop offset="0.52" stop-color="#4D7844"/>
<stop offset="0.6" stop-color="#45713D"/>
</radialGradient>
<radialGradient id="paint21_radial_290_840" cx="0" cy="0" r="1" gradientUnits="userSpaceOnUse" gradientTransform="translate(4.2232 4.30256) scale(3.72397)">
<stop stop-color="#9FCB7E"/>
<stop offset="0.1" stop-color="#8AB66F"/>
<stop offset="0.32" stop-color="#659154"/>
<stop offset="0.49" stop-color="#4D7943"/>
<stop offset="0.6" stop-color="#45713D"/>
</radialGradient>
<radialGradient id="paint22_radial_290_840" cx="0" cy="0" r="1" gradientUnits="userSpaceOnUse" gradientTransform="translate(5.65455 4.85804) scale(1.69544)">
<stop stop-color="#9FCB7E"/>
<stop offset="0.11" stop-color="#8AB66F"/>
<stop offset="0.35" stop-color="#659154"/>
<stop offset="0.54" stop-color="#4D7943"/>
<stop offset="0.65" stop-color="#45713D"/>
</radialGradient>
<radialGradient id="paint23_radial_290_840" cx="0" cy="0" r="1" gradientUnits="userSpaceOnUse" gradientTransform="translate(6.30749 4.85804) rotate(180) scale(1.69544)">
<stop stop-color="#9FCB7E"/>
<stop offset="0.11" stop-color="#8AB66F"/>
<stop offset="0.35" stop-color="#659154"/>
<stop offset="0.54" stop-color="#4D7943"/>
<stop offset="0.65" stop-color="#45713D"/>
</radialGradient>
<radialGradient id="paint24_radial_290_840" cx="0" cy="0" r="1" gradientUnits="userSpaceOnUse" gradientTransform="translate(5.84948 3.05188) scale(1.43549)">
<stop stop-color="#9FCB7E"/>
<stop offset="0.11" stop-color="#8AB66F"/>
<stop offset="0.35" stop-color="#659154"/>
<stop offset="0.54" stop-color="#4D7943"/>
<stop offset="0.65" stop-color="#45713D"/>
</radialGradient>
<radialGradient id="paint25_radial_290_840" cx="0" cy="0" r="1" gradientUnits="userSpaceOnUse" gradientTransform="translate(3.84796 6.21294) scale(0.635102)">
<stop stop-color="#BFE0A4"/>
<stop offset="0.21" stop-color="#8BB078"/>
<stop offset="0.38" stop-color="#658D57"/>
<stop offset="0.52" stop-color="#4D7844"/>
<stop offset="0.6" stop-color="#45713D"/>
</radialGradient>
<radialGradient id="paint26_radial_290_840" cx="0" cy="0" r="1" gradientUnits="userSpaceOnUse" gradientTransform="translate(3.71392 3.33008) scale(3.77906)">
<stop stop-color="#BFE0A4"/>
<stop offset="0.21" stop-color="#8BB078"/>
<stop offset="0.38" stop-color="#658D57"/>
<stop offset="0.52" stop-color="#4D7844"/>
<stop offset="0.6" stop-color="#45713D"/>
</radialGradient>
<linearGradient id="paint27_linear_290_840" x1="5.28704" y1="5.37291" x2="4.58382" y2="4.05763" gradientUnits="userSpaceOnUse">
<stop stop-color="#9FCB7E"/>
<stop offset="0.1" stop-color="#8AB66F"/>
<stop offset="0.32" stop-color="#659154"/>
<stop offset="0.49" stop-color="#4D7943"/>
<stop offset="0.6" stop-color="#45713D"/>
</linearGradient>
<linearGradient id="paint28_linear_290_840" x1="6.77398" y1="5.48009" x2="7.13711" y2="3.96045" gradientUnits="userSpaceOnUse">
<stop stop-color="#9FCB7E"/>
<stop offset="0.1" stop-color="#8AB66F"/>
<stop offset="0.32" stop-color="#659154"/>
<stop offset="0.49" stop-color="#4D7943"/>
<stop offset="0.6" stop-color="#45713D"/>
</linearGradient>
<radialGradient id="paint29_radial_290_840" cx="0" cy="0" r="1" gradientUnits="userSpaceOnUse" gradientTransform="translate(7.083 4.30256) scale(3.72347 3.72347)">
<stop stop-color="#9FCB7E"/>
<stop offset="0.1" stop-color="#8AB66F"/>
<stop offset="0.32" stop-color="#659154"/>
<stop offset="0.49" stop-color="#4D7943"/>
<stop offset="0.6" stop-color="#45713D"/>
</radialGradient>
<radialGradient id="paint30_radial_290_840" cx="0" cy="0" r="1" gradientUnits="userSpaceOnUse" gradientTransform="translate(7.07676 3.41222) scale(5.1835 5.1835)">
<stop stop-color="#BFE0A4"/>
<stop offset="0.21" stop-color="#8BB078"/>
<stop offset="0.38" stop-color="#658D57"/>
<stop offset="0.52" stop-color="#4D7844"/>
<stop offset="0.6" stop-color="#45713D"/>
</radialGradient>
<radialGradient id="paint31_radial_290_840" cx="0" cy="0" r="1" gradientUnits="userSpaceOnUse" gradientTransform="translate(4.2232 4.30256) scale(3.72397)">
<stop stop-color="#9FCB7E"/>
<stop offset="0.1" stop-color="#8AB66F"/>
<stop offset="0.32" stop-color="#659154"/>
<stop offset="0.49" stop-color="#4D7943"/>
<stop offset="0.6" stop-color="#45713D"/>
</radialGradient>
<radialGradient id="paint32_radial_290_840" cx="0" cy="0" r="1" gradientUnits="userSpaceOnUse" gradientTransform="translate(5.65455 4.85804) scale(1.69544)">
<stop stop-color="#9FCB7E"/>
<stop offset="0.11" stop-color="#8AB66F"/>
<stop offset="0.35" stop-color="#659154"/>
<stop offset="0.54" stop-color="#4D7943"/>
<stop offset="0.65" stop-color="#45713D"/>
</radialGradient>
<radialGradient id="paint33_radial_290_840" cx="0" cy="0" r="1" gradientUnits="userSpaceOnUse" gradientTransform="translate(6.30749 4.85804) rotate(180) scale(1.69544)">
<stop stop-color="#9FCB7E"/>
<stop offset="0.11" stop-color="#8AB66F"/>
<stop offset="0.35" stop-color="#659154"/>
<stop offset="0.54" stop-color="#4D7943"/>
<stop offset="0.65" stop-color="#45713D"/>
</radialGradient>
<radialGradient id="paint34_radial_290_840" cx="0" cy="0" r="1" gradientUnits="userSpaceOnUse" gradientTransform="translate(5.84948 3.05188) scale(1.43549)">
<stop stop-color="#9FCB7E"/>
<stop offset="0.11" stop-color="#8AB66F"/>
<stop offset="0.35" stop-color="#659154"/>
<stop offset="0.54" stop-color="#4D7943"/>
<stop offset="0.65" stop-color="#45713D"/>
</radialGradient>
<radialGradient id="paint35_radial_290_840" cx="0" cy="0" r="1" gradientUnits="userSpaceOnUse" gradientTransform="translate(3.84796 6.21294) scale(0.635102)">
<stop stop-color="#BFE0A4"/>
<stop offset="0.21" stop-color="#8BB078"/>
<stop offset="0.38" stop-color="#658D57"/>
<stop offset="0.52" stop-color="#4D7844"/>
<stop offset="0.6" stop-color="#45713D"/>
</radialGradient>
<radialGradient id="paint36_radial_290_840" cx="0" cy="0" r="1" gradientUnits="userSpaceOnUse" gradientTransform="translate(4.72667 3.64262) scale(4.15471)">
<stop stop-color="#BFE0A4"/>
<stop offset="0.21" stop-color="#8BB078"/>
<stop offset="0.38" stop-color="#658D57"/>
<stop offset="0.52" stop-color="#4D7844"/>
<stop offset="0.6" stop-color="#45713D"/>
</radialGradient>
<linearGradient id="paint37_linear_290_840" x1="5.28704" y1="5.37291" x2="4.58382" y2="4.05763" gradientUnits="userSpaceOnUse">
<stop stop-color="#9FCB7E"/>
<stop offset="0.1" stop-color="#8AB66F"/>
<stop offset="0.32" stop-color="#659154"/>
<stop offset="0.49" stop-color="#4D7943"/>
<stop offset="0.6" stop-color="#45713D"/>
</linearGradient>
<linearGradient id="paint38_linear_290_840" x1="6.77398" y1="5.48009" x2="7.13711" y2="3.96045" gradientUnits="userSpaceOnUse">
<stop stop-color="#9FCB7E"/>
<stop offset="0.1" stop-color="#8AB66F"/>
<stop offset="0.32" stop-color="#659154"/>
<stop offset="0.49" stop-color="#4D7943"/>
<stop offset="0.6" stop-color="#45713D"/>
</linearGradient>
<clipPath id="clip0_290_840">
<rect width="12" height="12.7826" fill="white"/>
</clipPath>
</defs>
</svg>
