<svg width="1069" height="941" viewBox="0 0 1069 941" fill="none" xmlns="http://www.w3.org/2000/svg">
<path d="M680.478 0.761206H875.549C938.838 0.761206 986.522 11.5985 1018.6 33.273C1051.55 54.9474 1068.02 92.661 1068.02 146.414V866.873C1068.02 897.218 1063.25 917.158 1053.71 926.695C1045.04 936.232 1025.97 941 996.492 941H859.943V162.019C859.943 148.148 857.776 138.611 853.441 133.409C849.973 127.34 840.436 124.306 824.83 124.306H680.478V0.761206ZM208.408 941H71.859C42.3818 941 22.8747 936.232 13.3379 926.695C4.66816 917.158 0.333267 897.218 0.333267 866.873V52.78C0.333267 37.1743 4.66816 24.6032 13.3379 15.0664C22.0077 5.52961 33.2785 0.761206 47.1501 0.761206H208.408V941ZM261.727 0.761206H594.647C608.519 0.761206 619.79 5.52961 628.46 15.0664C637.129 24.6032 641.464 37.1743 641.464 52.78V846.066H506.216C480.206 846.066 461.566 839.13 450.295 825.258C439.025 810.52 433.389 787.111 433.389 755.033V162.019C433.389 148.148 431.222 138.611 426.887 133.409C423.419 127.34 413.882 124.306 398.277 124.306H261.727V0.761206Z" fill="url(#paint0_linear_31_20)"/>
<defs>
<linearGradient id="paint0_linear_31_20" x1="1101.81" y1="-43.0488" x2="286.222" y2="989.229" gradientUnits="userSpaceOnUse">
<stop stop-color="#FA8500"/>
<stop offset="1" stop-color="#CB3600"/>
</linearGradient>
</defs>
</svg>
