<svg width="12" height="13" viewBox="0 0 12 13" fill="none" xmlns="http://www.w3.org/2000/svg">
<g clip-path="url(#clip0_290_912)">
<path d="M10.7147 0.0638428H1.52318C0.818133 0.0638428 0.246582 0.635394 0.246582 1.34044V11.0426C0.246582 11.7476 0.818133 12.3192 1.52318 12.3192H10.7147C11.4197 12.3192 11.9913 11.7476 11.9913 11.0426V1.34044C11.9913 0.635394 11.4197 0.0638428 10.7147 0.0638428Z" fill="url(#paint0_linear_290_912)"/>
<path d="M9.32184 4.72665H2.68951C2.48118 4.72665 2.31201 4.55788 2.31201 4.34913V3.70744L6.00547 2.13696L9.69892 3.70785V4.34954C9.69892 4.55788 9.53018 4.72706 9.32143 4.72706L9.32184 4.72665Z" fill="white"/>
<path d="M4.30692 5.48126C4.39942 5.48126 4.47443 5.40627 4.47443 5.31377V5.02832H2.81396V5.31377C2.81396 5.40627 2.88895 5.48126 2.98145 5.48126H3.10646V8.07093H2.98145C2.88895 8.07093 2.81396 8.14595 2.81396 8.23845V8.52387H4.47443V8.23845C4.47443 8.14595 4.39942 8.07093 4.30692 8.07093H4.18191V5.48126H4.30692Z" fill="white"/>
<path d="M6.66873 5.48126C6.76124 5.48126 6.83625 5.40627 6.83625 5.31377V5.02832H5.17578V5.31377C5.17578 5.40627 5.25077 5.48126 5.34327 5.48126H5.46827V8.07093H5.34327C5.25077 8.07093 5.17578 8.14595 5.17578 8.23845V8.52387H6.83625V8.23845C6.83625 8.14595 6.76124 8.07093 6.66873 8.07093H6.54373V5.48126H6.66873Z" fill="white"/>
<path d="M9.03009 5.48126C9.12259 5.48126 9.19758 5.40627 9.19758 5.31377V5.02832H7.53711V5.31377C7.53711 5.40627 7.61212 5.48126 7.70462 5.48126H7.82963V8.07093H7.70462C7.61212 8.07093 7.53711 8.14595 7.53711 8.23845V8.52387H9.19758V8.23845C9.19758 8.14595 9.12259 8.07093 9.03009 8.07093H8.90508V5.48126H9.03009Z" fill="white"/>
<path d="M2.72656 8.82599H9.51222C9.61555 8.82599 9.69973 8.91014 9.69973 9.01349V9.33558H2.53906V9.01349C2.53906 8.91014 2.62323 8.82599 2.72656 8.82599Z" fill="white"/>
<path d="M2.27321 9.73639H9.9643C10.0793 9.73639 10.1731 9.82971 10.1731 9.94514V10.246H2.06445V9.94514C2.06445 9.83014 2.15779 9.73639 2.27321 9.73639Z" fill="white"/>
</g>
<defs>
<linearGradient id="paint0_linear_290_912" x1="-0.954578" y1="-4.41406" x2="9.34115" y2="-0.909543" gradientUnits="userSpaceOnUse">
<stop stop-color="#F66435"/>
<stop offset="1" stop-color="#672611"/>
</linearGradient>
<clipPath id="clip0_290_912">
<rect width="12" height="12.5106" fill="white"/>
</clipPath>
</defs>
</svg>
