<svg width="12" height="12" viewBox="0 0 12 12" fill="none" xmlns="http://www.w3.org/2000/svg">
<path d="M10.711 7.97534V9.66849C10.711 10.0841 10.3741 10.421 9.95848 10.421H0.928289C0.512695 10.421 0.175781 10.0841 0.175781 9.66849V4.40088C0.175781 3.98529 0.512695 3.64838 0.928289 3.64838H9.95848C10.3741 3.64838 10.711 3.98529 10.711 4.40088V7.22281" stroke="#F66435" stroke-width="0.351562" stroke-miterlimit="10" stroke-linecap="round" stroke-linejoin="round"/>
<path d="M0.913574 2.89585C1.03282 2.75195 1.20556 2.65196 1.40588 2.62864L10.3754 1.5841C10.7882 1.53603 11.1619 1.8317 11.2099 2.24452L11.8193 7.47676C11.8673 7.88956 11.5717 8.2632 11.1589 8.31127L10.7112 8.3634" stroke="#F66435" stroke-width="0.351562" stroke-miterlimit="10" stroke-linecap="round" stroke-linejoin="round"/>
<path d="M1.30469 8.16345H2.80973" stroke="#F66435" stroke-width="0.351562" stroke-miterlimit="10" stroke-linecap="round" stroke-linejoin="round"/>
<path d="M1.30469 9.10413H5.06725" stroke="#F66435" stroke-width="0.351562" stroke-miterlimit="10" stroke-linecap="round" stroke-linejoin="round"/>
<path d="M3.56201 8.16345H5.06703" stroke="#F66435" stroke-width="0.351562" stroke-miterlimit="10" stroke-linecap="round" stroke-linejoin="round"/>
<path d="M5.81982 8.16345H7.32484" stroke="#F66435" stroke-width="0.351562" stroke-miterlimit="10" stroke-linecap="round" stroke-linejoin="round"/>
<path d="M8.07715 8.16345H9.58216" stroke="#F66435" stroke-width="0.351562" stroke-miterlimit="10" stroke-linecap="round" stroke-linejoin="round"/>
<path d="M2.80973 7.22281H1.68095C1.47316 7.22281 1.30469 7.05437 1.30469 6.84655V6.09404C1.30469 5.88624 1.47313 5.71777 1.68095 5.71777H2.80973C3.01752 5.71777 3.18599 5.88622 3.18599 6.09404V6.84655C3.18597 7.05437 3.01752 7.22281 2.80973 7.22281Z" stroke="#F66435" stroke-width="0.351562" stroke-miterlimit="10" stroke-linecap="round" stroke-linejoin="round"/>
<path d="M2.05713 6.47028H2.43339" stroke="#F66435" stroke-width="0.351562" stroke-miterlimit="10" stroke-linecap="round" stroke-linejoin="round"/>
<path d="M9.00586 6.65844C9.13275 6.4034 9.2059 6.11654 9.2059 5.81186C9.2059 5.50717 9.13275 5.22029 9.00586 4.96527" stroke="#F66435" stroke-width="0.351562" stroke-miterlimit="10" stroke-linecap="round" stroke-linejoin="round"/>
<path d="M8.33105 6.31871C8.40739 6.16578 8.45326 5.99474 8.45326 5.81185C8.45326 5.62897 8.40739 5.45792 8.33105 5.30499" stroke="#F66435" stroke-width="0.351562" stroke-miterlimit="10" stroke-linecap="round" stroke-linejoin="round"/>
<path d="M7.65918 5.98031C7.68503 5.92957 7.70085 5.87287 7.70085 5.81184C7.70085 5.75079 7.68503 5.69411 7.65918 5.64337" stroke="#F66435" stroke-width="0.351562" stroke-miterlimit="10" stroke-linecap="round" stroke-linejoin="round"/>
</svg>
