<svg width="12" height="12" viewBox="0 0 12 12" fill="none" xmlns="http://www.w3.org/2000/svg">
<g clip-path="url(#clip0_290_811)">
<path d="M10.1268 0.0612183H1.31043C0.63416 0.0612183 0.0859375 0.609441 0.0859375 1.28571V10.5918C0.0859375 11.2681 0.63416 11.8163 1.31043 11.8163H10.1268C10.803 11.8163 11.3512 11.2681 11.3512 10.5918V1.28571C11.3512 0.609441 10.803 0.0612183 10.1268 0.0612183Z" fill="white"/>
<path d="M7.05975 8.30444H6.57622L5.99736 7.77874V7.50913L6.59667 6.943V6.0466L7.37983 5.54111L8.27199 6.20836L7.05975 8.30444ZM5.05754 6.88908L5.14607 6.0466L4.85324 5.29175H6.58303L6.29701 6.0466L6.37874 6.88908H5.71134H5.05754ZM5.45253 7.77874L4.87367 8.31118H4.38333L3.1643 6.20836L4.06325 5.54787L4.85324 6.0466V6.943L5.45253 7.50913V7.77874ZM4.37652 3.73484H7.05294L7.37302 5.08281H4.06325L4.37652 3.73484ZM5.71815 2.05664L2.31982 3.99771V7.87984L5.71815 9.8209L9.11645 7.87984V3.99771L5.71815 2.05664Z" fill="#002E73"/>
<path d="M6.57642 8.30438H7.05995L8.27217 6.2083L7.38003 5.54108L6.59685 6.04655V6.94295L5.99756 7.50908V7.77868L6.57642 8.30438Z" fill="white"/>
<path d="M5.14634 6.04654L5.05781 6.88901H6.37901L6.29729 6.04654L6.5833 5.29169H4.85352L5.14634 6.04654Z" fill="white"/>
<path d="M4.87394 8.3111L5.4528 7.77866V7.50906L4.85351 6.94293V6.04653L4.06352 5.54779L3.16455 6.20828L4.3836 8.3111H4.87394Z" fill="white"/>
<path d="M7.05317 3.7348H4.37675L4.06348 5.08275H7.37325L7.05317 3.7348Z" fill="white"/>
</g>
<defs>
<clipPath id="clip0_290_811">
<rect width="11.5102" height="12" fill="white"/>
</clipPath>
</defs>
</svg>
