<svg width="12" height="12" viewBox="0 0 12 12" fill="none" xmlns="http://www.w3.org/2000/svg">
<g clip-path="url(#clip0_290_820)">
<path d="M10.117 0.0612183H1.30066C0.624395 0.0612183 0.0761719 0.609441 0.0761719 1.28571V10.5918C0.0761719 11.2681 0.624395 11.8163 1.30066 11.8163H10.117C10.7933 11.8163 11.3415 11.2681 11.3415 10.5918V1.28571C11.3415 0.609441 10.7933 0.0612183 10.117 0.0612183Z" fill="#2376F3"/>
<path d="M8.50974 2.03869L3.98175 2.02039H3.9778C3.83701 2.0202 3.69757 2.04776 3.56745 2.10151C3.43734 2.15525 3.3191 2.23412 3.21948 2.3336C3.11988 2.43307 3.04085 2.5512 2.98692 2.68127C2.93302 2.81131 2.90527 2.95071 2.90527 3.09147V8.78638C2.90522 8.92702 2.93287 9.06625 2.98668 9.19619C3.04046 9.32613 3.11934 9.44417 3.21877 9.5436C3.3182 9.64306 3.43626 9.72191 3.56618 9.77572C3.69612 9.8295 3.83537 9.85717 3.97599 9.85712H3.98175L8.51189 9.84277V9.56971C8.51211 8.22397 8.00246 6.92812 7.08558 5.94306C8.00532 4.95796 8.51471 3.65912 8.50974 2.31139V2.03869ZM5.0399 4.53613C4.48839 4.31148 4.04811 4.26987 3.45318 4.2397V4.22968C3.86784 4.16706 4.25106 3.97181 4.54545 3.67315C4.83985 3.37448 5.02957 2.98849 5.08621 2.57297L6.07729 2.57728C6.01087 3.36921 5.64022 4.01508 5.0399 4.53613ZM3.60749 2.72116C3.65581 2.67248 3.71341 2.63391 3.77684 2.60777C3.84024 2.58164 3.90816 2.56822 3.97673 2.56832L4.42991 2.57297C4.42991 2.7829 4.31652 3.04448 4.12491 3.24003C3.93331 3.4356 3.67244 3.54502 3.4582 3.54502L3.45318 3.08968C3.45321 3.02109 3.46685 2.9532 3.49335 2.88995C3.51982 2.82666 3.55864 2.76931 3.60749 2.72116ZM3.45318 7.6561V6.67039C4.16833 6.73822 4.76219 6.92373 5.26849 7.4329C5.77479 7.94207 6.00982 8.58115 6.07369 9.2988L5.08548 9.3013C5.02682 8.88799 4.83625 8.50465 4.54212 8.20842C4.248 7.91217 3.86608 7.71882 3.45318 7.65718V7.6561ZM3.98175 9.30955C3.84299 9.30955 3.70991 9.25443 3.6118 9.15632C3.5137 9.05822 3.45857 8.92514 3.45857 8.78638V8.34791C3.66776 8.34791 3.93402 8.45807 4.12528 8.65257C4.31652 8.84702 4.43028 9.11004 4.43028 9.30096L3.98175 9.30955ZM7.84124 9.29773L6.77841 9.30096C6.71251 8.44014 6.34122 7.63122 5.73152 7.02C5.12182 6.40881 4.31383 6.03551 3.45318 5.96746L3.4582 4.88057C4.63014 4.95235 5.58245 5.38293 6.41207 6.21468C7.24166 7.04643 7.77272 8.12687 7.8409 9.30057L7.84124 9.29773ZM6.56527 5.45077C6.26567 5.18809 6.06651 5.07039 5.717 4.87915C6.3372 4.26664 6.71322 3.44929 6.77483 2.57981L7.78528 2.57728C7.72572 3.68606 7.32132 4.63693 6.56527 5.45077Z" fill="white"/>
</g>
<defs>
<clipPath id="clip0_290_820">
<rect width="11.5102" height="12" fill="white"/>
</clipPath>
</defs>
</svg>
