<svg width="12" height="12" viewBox="0 0 12 12" fill="none" xmlns="http://www.w3.org/2000/svg">
<g clip-path="url(#clip0_290_931)">
<path d="M10.5875 0.0625H1.25C0.559644 0.0625 0 0.622144 0 1.3125V10.6875C0 11.3779 0.559644 11.9375 1.25 11.9375H10.5875C11.2779 11.9375 11.8375 11.3779 11.8375 10.6875V1.3125C11.8375 0.622144 11.2779 0.0625 10.5875 0.0625Z" fill="#5E59EC"/>
<path d="M5.91875 1.3125C3.35 1.3125 1.25 3.4125 1.25 6C1.25 8.5875 3.33125 10.6875 5.91875 10.6875C8.50625 10.6875 10.5875 8.5875 10.5875 6C10.5875 3.4125 8.50625 1.3125 5.91875 1.3125ZM7.25 8.34375L7.23125 5.41875L4.325 8.34375H2.9L6.55625 4.6875H5.225C4.8125 4.6875 4.475 5.025 4.475 5.4375C4.475 5.60625 4.53125 5.775 4.625 5.8875L3.9125 6.6C3.63125 6.28125 3.4625 5.86875 3.4625 5.41875C3.4625 4.44375 4.25 3.65625 5.225 3.65625H8.2625V8.325L7.25 8.34375Z" fill="white"/>
</g>
<defs>
<clipPath id="clip0_290_931">
<rect width="12" height="12" fill="white"/>
</clipPath>
</defs>
</svg>
