<svg width="123" height="115" viewBox="0 0 123 115" fill="none" xmlns="http://www.w3.org/2000/svg">
<g clip-path="url(#clip0_571_893)">
<path d="M94.78 0.0400299C92.89 -0.15997 91.21 0.33003 89.72 1.52003C88.24 2.71003 87.42 4.25003 87.22 6.15003L85.65 21.04C85.45 22.94 85.94 24.63 87.13 26.1C88.32 27.57 89.86 28.4 91.76 28.6L97.38 29.19C96.83 30.66 96.19 32.04 95.45 33.32C94.72 34.62 93.57 35.81 92.05 36.9C94.79 36.49 97.27 35.7 99.52 34.55C101.75 33.41 103.74 31.9 105.44 30.05L111.68 30.71C113.57 30.91 115.25 30.4 116.74 29.23C118.22 28.04 119.04 26.5 119.24 24.6L120.81 9.71003C121.01 7.82003 120.52 6.14003 119.33 4.65003C118.14 3.17003 116.6 2.35003 114.7 2.15003L94.78 0.0400299ZM40.19 56.95C53.39 53.76 67.71 53.28 83.74 56.95C85.05 57.25 86.41 57.94 87.09 58.99C87.37 59.29 87.63 59.62 87.84 59.98L97.72 73.79L103.77 57.22C104.35 55.57 105.1 54.49 106.13 53.99V53.97L112.88 48.92C113.6 48.38 114.63 48.53 115.17 49.25C115.71 49.97 115.56 51 114.84 51.54L110.9 54.49C111.25 54.63 111.61 54.78 111.97 54.95L116.28 52.13C116.86 51.75 117.65 51.91 118.03 52.5C118.41 53.08 118.25 53.87 117.67 54.25L115.46 55.69H121.09C122.08 55.69 122.89 56.5 122.89 57.49C122.89 58.48 122.08 59.29 121.09 59.29H116.21C116.11 59.93 115.61 60.76 115.41 61.33L104.92 91.56H104.91C104.44 92.88 103.52 94.06 102.22 94.82C99.29 96.54 95.52 95.56 93.8 92.62L84.36 78.1L79.71 103.66C78.68 109.33 75.28 114.17 69.87 114.17H54.06C48.65 114.17 45.25 109.33 44.21 103.66L39.33 76.85L29.09 92.62C27.37 95.55 23.6 96.54 20.67 94.82C19.36 94.05 18.45 92.88 17.98 91.56H17.97L7.48 61.33C7.28 60.76 6.79 59.93 6.68 59.29H1.8C0.81 59.29 0 58.48 0 57.49C0 56.5 0.81 55.69 1.8 55.69H7.43L5.22 54.25C4.64 53.87 4.48 53.08 4.86 52.5C5.24 51.92 6.03 51.76 6.61 52.13L10.92 54.95C11.28 54.79 11.63 54.63 11.99 54.49L8.05 51.54C7.33 51 7.18 49.97 7.72 49.26C8.26 48.54 9.29 48.39 10.01 48.93L16.76 53.98V54C17.79 54.5 18.54 55.58 19.12 57.23L25.17 73.8L35.05 59.99C36.08 58.24 38.05 57.18 40.1 56.98L40.19 56.95ZM61.09 10.08C72.26 10.08 81.31 19.13 81.31 30.3C81.31 41.47 72.26 50.52 61.09 50.52C49.92 50.52 40.87 41.47 40.87 30.3C40.87 19.14 49.92 10.08 61.09 10.08ZM100.8 19.72L104.05 20.24L103.59 23.11L100.34 22.59L100.8 19.72ZM104.3 18.67L101.06 18.15C101.37 14.16 101.05 11.87 101.69 7.93003C101.92 6.48003 103.29 5.49003 104.74 5.73003C106.19 5.97003 107.18 7.33003 106.95 8.78003C106.3 12.71 105.26 14.79 104.3 18.67Z" fill="url(#paint0_linear_571_893)"/>
</g>
<defs>
<linearGradient id="paint0_linear_571_893" x1="65.5" y1="-12.5" x2="133.644" y2="48.3192" gradientUnits="userSpaceOnUse">
<stop stop-color="#F66435"/>
<stop offset="1" stop-color="#672611"/>
</linearGradient>
<clipPath id="clip0_571_893">
<rect width="122.88" height="114.18" fill="white"/>
</clipPath>
</defs>
</svg>
