<svg width="492" height="492" viewBox="0 0 492 492" fill="none" xmlns="http://www.w3.org/2000/svg">
<path fill-rule="evenodd" clip-rule="evenodd" d="M353.63 279.5C305.13 279.5 265.67 318.96 265.67 367.46C265.67 391.43 275.31 413.19 290.92 429.07C291.08 429.22 291.24 429.38 291.39 429.54C307.32 445.51 329.34 455.4 353.63 455.4C402.12 455.4 441.58 415.94 441.58 367.45C441.58 318.96 402.12 279.5 353.63 279.5ZM399.87 404.09C402.5 406.72 402.5 410.98 399.87 413.61C398.56 414.92 396.84 415.58 395.11 415.58C393.39 415.58 391.66 414.92 390.35 413.61L353.67 376.93L317 413.61C315.69 414.92 313.96 415.58 312.24 415.58C310.52 415.58 308.8 414.92 307.48 413.61C304.85 410.98 304.85 406.72 307.48 404.09L344.16 367.41L307.48 330.73C304.85 328.1 304.85 323.84 307.48 321.21C310.11 318.58 314.37 318.58 317 321.21L353.68 357.89L390.36 321.21C392.99 318.58 397.25 318.58 399.88 321.21C402.51 323.84 402.51 328.1 399.88 330.73L363.2 367.41L399.87 404.09ZM346.9 266.27V70.9601C346.9 52.8301 331.1 38.0801 311.67 38.0801H86.1702C66.7502 38.0801 50.9502 52.8301 50.9502 70.9601V394.42C50.9502 412.55 66.7502 427.3 86.1702 427.3H271.81C259.5 410.51 252.22 389.82 252.22 367.45C252.22 313.79 294.1 269.74 346.9 266.27ZM281.52 278.57H129.05C125.33 278.57 122.32 275.56 122.32 271.84C122.32 268.12 125.33 265.11 129.05 265.11H281.52C285.24 265.11 288.25 268.12 288.25 271.84C288.25 275.56 285.24 278.57 281.52 278.57ZM324.59 187.92C324.59 191.64 321.57 194.65 317.86 194.65H129.06C125.34 194.65 122.33 191.64 122.33 187.92C122.33 184.2 125.34 181.19 129.06 181.19H317.86C321.58 181.19 324.59 184.21 324.59 187.92ZM178.32 70.3101H312.61C316.32 70.3101 319.34 73.3201 319.34 77.0401C319.34 80.7601 316.33 83.7701 312.61 83.7701H178.32C174.6 83.7701 171.59 80.7501 171.59 77.0401C171.59 73.3301 174.6 70.3101 178.32 70.3101ZM178.32 123.41H275.34C279.06 123.41 282.07 126.42 282.07 130.14C282.07 133.86 279.06 136.87 275.34 136.87H178.32C174.6 136.87 171.59 133.86 171.59 130.14C171.59 126.43 174.6 123.41 178.32 123.41ZM73.2602 67.5901C73.2602 63.8701 76.2702 60.8601 79.9902 60.8601H151.92C155.64 60.8601 158.65 63.8801 158.65 67.5901V139.52C158.65 143.24 155.63 146.25 151.92 146.25H79.9902C76.2702 146.25 73.2602 143.24 73.2602 139.52V67.5901ZM93.0002 362.57H79.9902C76.2702 362.57 73.2602 359.56 73.2602 355.84C73.2602 352.12 76.2702 349.11 79.9902 349.11H93.0002C96.7202 349.11 99.7302 352.12 99.7302 355.84C99.7302 359.56 96.7202 362.57 93.0002 362.57ZM93.0002 278.57H79.9902C76.2702 278.57 73.2602 275.56 73.2602 271.84C73.2602 268.12 76.2702 265.11 79.9902 265.11H93.0002C96.7202 265.11 99.7302 268.12 99.7302 271.84C99.7302 275.56 96.7202 278.57 93.0002 278.57ZM93.0002 194.66H79.9902C76.2702 194.66 73.2602 191.65 73.2602 187.93C73.2602 184.21 76.2702 181.2 79.9902 181.2H93.0002C96.7202 181.2 99.7302 184.21 99.7302 187.93C99.7302 191.64 96.7202 194.66 93.0002 194.66ZM236.1 362.57H129.05C125.33 362.57 122.32 359.56 122.32 355.84C122.32 352.12 125.33 349.11 129.05 349.11H236.1C239.81 349.11 242.83 352.12 242.83 355.84C242.83 359.56 239.81 362.57 236.1 362.57ZM145.18 132.78H86.7202V74.3201H145.18V132.78Z" fill="url(#paint0_linear_461_827)"/>
<defs>
<linearGradient id="paint0_linear_461_827" x1="37.6025" y1="71.3679" x2="405.816" y2="439.582" gradientUnits="userSpaceOnUse">
<stop stop-color="#D33230"/>
<stop offset="1" stop-color="#FD8F04"/>
</linearGradient>
</defs>
</svg>
