<svg width="3000" height="3000" viewBox="0 0 3000 3000" fill="none" xmlns="http://www.w3.org/2000/svg">
<path d="M2620.11 1839.72L2026.58 1497.14L2027.3 1285.75C2027.3 1203.13 1944.72 1109.51 1887.15 1129.14C1886.97 1129.14 1886.62 1128.96 1886.44 1128.96C1885.54 1128.96 1884.82 1129.14 1884.11 1129.49L1710.49 1230.44L1712.1 607.207C1712.46 524.693 1654.29 423.923 1582.16 382.576C1580.72 381.86 1579.11 381.86 1577.68 382.576L807.493 830.226C806.062 831.122 805.166 832.553 805.166 834.164C805.166 835.775 806.062 837.206 807.493 837.922C876.941 878.016 933.322 975.207 932.785 1054.86L932.248 1259.8C908.623 1268.93 893.23 1294.17 893.051 1331.75C893.051 1345.36 894.84 1359.67 898.601 1374.17C888.218 1364.15 877.3 1355.56 865.845 1348.94C806.42 1314.57 757.556 1343.03 757.377 1410.69C757.377 1424.29 759.348 1438.43 762.927 1452.93C752.544 1442.9 741.628 1434.31 730.171 1427.69C670.748 1393.5 621.884 1421.78 621.705 1489.44C621.705 1503.04 623.674 1517.18 627.252 1531.86C616.874 1521.84 605.953 1513.25 594.5 1506.62C535.254 1472.44 486.39 1500.54 486.032 1568.37C486.032 1581.8 488.001 1595.94 491.582 1610.62C481.199 1600.59 470.281 1592 458.826 1585.38C399.222 1551.01 350.716 1579.65 350.358 1647.13C350.358 1668.25 355.191 1691.7 363.961 1714.79C355.37 1723.56 350.358 1733.58 350.537 1744.14V1744.68L350 1820.39C350 1836.68 360.741 1851.89 379.892 1862.99L1553.88 2540.81C1554.41 2540.99 1554.77 2541.17 1555.13 2541.17C1573.92 2551.73 1598.09 2556.92 1622.25 2556.92C1646.41 2556.92 1670.58 2551.73 1689.19 2541.35C1689.73 2541.17 1690.09 2540.99 1690.44 2540.81L2620.29 2000.27C2639.26 1989.53 2649.64 1974.68 2649.64 1958.39C2649.66 1955.71 2650.02 1877.5 2650 1882.32V1882.14C2650 1865.85 2639.44 1850.82 2620.11 1839.72L2620.11 1839.72ZM1883.39 1140.41C1931.3 1112.42 2018.35 1202.46 2018.35 1285.75L2016.92 1685.61L1932.97 1734.47L1932.44 1518.26C1932.44 1516.65 1931.54 1515.21 1930.29 1514.5C1928.86 1513.6 1927.07 1513.6 1925.81 1514.5L1835.96 1566.23C1834.53 1567.12 1833.64 1568.55 1833.64 1570.16L1834.17 1791.93L1784.06 1821.11L1783.52 1709.6C1783.52 1707.99 1782.62 1706.55 1781.19 1705.66C1779.94 1704.94 1778.15 1704.94 1776.72 1705.66L1687.22 1757.56C1685.79 1758.28 1684.9 1759.89 1684.9 1761.5L1685.25 1878.56L1635.67 1907.38L1634.96 1690.09C1634.96 1688.48 1634.06 1687.04 1632.63 1686.15C1631.2 1685.43 1629.59 1685.43 1628.16 1686.15L1538.12 1738.06C1536.87 1738.95 1535.97 1740.38 1535.97 1741.99L1536.69 1964.83L1486.4 1994.19L1486.04 1903.98C1486.04 1902.37 1485.14 1900.93 1483.71 1900.04C1482.28 1899.32 1480.67 1899.32 1479.24 1900.04L1389.56 1951.95C1388.31 1952.66 1387.42 1954.27 1387.42 1955.88L1387.77 2051.46L1255.68 2128.25L1256.93 1733.4C1256.93 1678.81 1218.99 1612.76 1172.09 1586.09C1159.74 1579.11 1147.93 1575.18 1136.83 1574.28L1883.39 1140.41ZM1924.02 1739.67L1843.12 1786.74L1842.59 1572.67L1923.49 1526.13L1924.02 1739.67ZM1626.72 1912.57C1624.91 1913.62 1543.83 1960.7 1545.64 1959.64L1544.93 1744.5L1626.01 1697.78L1626.72 1912.57ZM818.413 834.164L1580.01 391.704C1648.56 432.335 1703.51 528.451 1703.15 607.207L1701.54 1235.63C1083.94 1594.81 1115.01 1576.05 1113.21 1577.86C1111.86 1579.65 1089.76 1590.2 1089.76 1629.05L1088.86 1940.85C1088.86 1964.47 1081.17 1982.01 1067.03 1990.25C1063.96 1991.01 1047.54 2008.76 1012.61 1988.28C972.343 1965.01 939.589 1908.45 939.589 1862.27L941.737 1054.86C942.274 974.847 887.503 877.835 818.414 834.162L818.413 834.164ZM1008.14 1995.98C1047.65 2019.06 1068.45 1998.84 1070.43 1998.48C1072.92 1997.24 1071.13 1998.1 1247.45 1895.56L1246.73 2135.95C1246.73 2138.88 1250.07 2141.35 1253 2139.88H1253.35C1474.62 2011.31 1780.7 1833.45 2023.72 1692.23C2025.28 1691.3 2025.17 1690.22 2025.87 1688.83C2026.12 1634.64 2026.42 1569.47 2026.41 1572.13L2541.89 1869.79C2551.14 1874.97 2551.73 1888.59 2541.89 1894.49L1667.35 2402.82C1639.79 2418.75 1605.61 2418.75 1578.04 2402.82L581.253 1827.37C576.778 1824.68 574.093 1820.21 574.093 1815.02C574.093 1809.83 576.778 1805.17 581.076 1802.67L931.355 1599.16L930.638 1862.27C930.638 1911.31 965.363 1971.27 1008.14 1995.98L1008.14 1995.98ZM931.712 1489.26C929.029 1488.37 926.344 1487.65 924.017 1486.22C906.835 1476.38 906.835 1461.88 923.838 1452.03C926.165 1450.6 928.85 1449.35 931.712 1448.45V1489.26ZM931.891 1414.98C928.133 1409.25 924.375 1403.88 920.259 1398.51L931.891 1391.71V1414.98ZM932.249 1269.29L931.891 1381.33L914.53 1391.53C913.634 1390.28 912.741 1389.39 911.847 1388.31V1387.78C905.222 1368.27 902.002 1349.47 902.002 1331.93C902.181 1299.89 913.633 1278.41 932.249 1269.29ZM861.371 1356.63C877.48 1365.94 892.873 1379.72 906.656 1396.19L779.037 1470.29C778.32 1469.21 777.427 1468.5 776.531 1467.43C769.909 1447.92 766.327 1428.41 766.327 1410.69C766.506 1349.65 808.033 1326.02 861.371 1356.63ZM725.696 1435.56C740.912 1444.33 755.59 1457.22 768.835 1472.44V1472.97C769.191 1473.87 770.087 1474.58 770.801 1474.94L643.364 1549.04C642.647 1548.15 641.752 1547.25 640.856 1546.36C634.236 1526.49 630.655 1507.52 630.655 1489.44C630.834 1428.41 672.538 1404.78 725.697 1435.56H725.696ZM590.026 1514.32C605.237 1523.09 619.916 1536.16 633.161 1551.19V1551.55C633.519 1552.62 634.415 1553.34 635.13 1553.88L507.69 1627.8C506.794 1626.72 505.901 1625.83 504.828 1624.76C504.828 1624.58 505.007 1624.4 504.828 1624.22C498.383 1604.89 494.983 1586.1 494.983 1568.38C495.162 1507.52 536.686 1483.54 590.027 1514.32L590.026 1514.32ZM359.308 1647.13C359.487 1586.27 401.193 1562.47 454.352 1593.07C470.461 1602.56 485.854 1616.34 499.637 1632.63L379.716 1702.26C376.67 1704.05 373.987 1706.19 371.302 1708.34C363.605 1687.4 359.308 1666.28 359.308 1647.13ZM2616.17 1916.15L1686.33 2456.51C1651.25 2476.92 1594.15 2476.92 1558.89 2456.51L1555.49 2454.72L384.725 1778.68C378.282 1774.93 373.269 1770.63 369.332 1766.16C363.068 1759.35 359.487 1752.02 359.487 1744.32V1743.78C359.487 1731.25 368.436 1719.08 384.367 1709.95L505.363 1639.61C513.777 1650.53 521.472 1662.17 528.095 1674.52C522.368 1675.95 516.998 1678.09 512.344 1680.78C489.433 1694.02 489.433 1717.11 512.523 1730.54C523.262 1736.62 537.223 1739.85 551.183 1739.85C552.258 1739.85 553.333 1739.67 554.406 1739.67C554.406 1739.67 554.585 1739.85 554.764 1739.85C555.122 1739.85 555.301 1739.67 555.658 1739.67L555.837 1739.49C568.188 1738.95 580.181 1736.09 589.668 1730.54C612.577 1717.29 612.577 1694.2 589.31 1680.78C574.99 1672.37 555.302 1669.68 537.224 1672.55C530.422 1659.3 522.19 1646.59 513.24 1634.96L641.036 1560.86C649.45 1571.6 657.148 1583.23 663.768 1595.58C658.041 1597.19 652.673 1599.16 648.019 1602.03C625.108 1615.27 625.108 1638.36 648.198 1651.78C658.935 1657.87 672.896 1660.91 686.858 1660.91C687.933 1660.91 688.827 1660.73 690.079 1660.73C690.079 1660.73 690.258 1660.91 690.437 1660.91H691.333C691.333 1660.91 691.333 1660.73 691.512 1660.73C703.861 1660.02 715.854 1657.15 725.341 1651.79C748.25 1638.36 748.071 1615.27 724.983 1602.03C710.665 1593.61 690.975 1590.93 672.897 1593.61C666.098 1580.37 657.863 1567.84 648.913 1556.21L776.711 1481.93C785.123 1492.84 792.818 1504.48 799.443 1516.83C793.714 1518.26 788.344 1520.41 783.692 1523.09C760.602 1536.52 760.781 1559.61 783.869 1572.85C795.506 1579.65 811.255 1582.52 826.291 1581.98C826.649 1581.8 826.828 1581.98 827.187 1581.8C839.536 1581.27 851.527 1578.4 861.014 1572.85C883.925 1559.43 883.746 1536.52 860.656 1523.09C846.338 1514.86 826.471 1512.18 808.572 1514.86C801.768 1501.62 793.535 1488.91 784.586 1477.27L912.384 1403.17C919.544 1412.3 925.987 1422.15 931.714 1432.53V1438.97C927.418 1440.4 923.123 1442.01 919.365 1444.34C896.454 1457.58 896.275 1480.67 919.544 1494.1C923.123 1496.25 927.239 1497.68 931.535 1499.11L931.358 1588.78L576.604 1794.98C569.442 1799.09 565.146 1806.61 565.146 1815.02C565.146 1823.44 569.442 1830.95 576.781 1835.07L1573.57 2410.52C1603.49 2427.97 1640.85 2428.38 1671.83 2410.52L2546.55 1902.19C2562 1892.92 2561.7 1870.7 2546.37 1862.1L2026.41 1561.76L2026.58 1507.34L2615.64 1847.6C2648.42 1866.13 2650.45 1896.35 2616.17 1916.15L2616.17 1916.15ZM549.037 1730.9C537.402 1730.54 525.947 1727.85 516.997 1722.84C499.994 1713 499.815 1698.32 516.818 1688.48C521.293 1685.97 526.484 1684 532.032 1682.57C539.729 1698.32 545.635 1714.61 549.037 1730.9ZM541.34 1680.96C556.554 1679.17 573.021 1681.67 584.835 1688.48C601.838 1698.32 602.375 1712.82 585.193 1722.84C577.675 1727.14 568.009 1729.64 558.166 1730.54C554.764 1713.71 548.858 1697.07 541.34 1680.96ZM684.709 1651.96C673.074 1651.78 661.621 1649.1 652.672 1643.91C635.846 1634.24 635.308 1619.74 652.493 1609.72C656.968 1607.04 662.157 1605.07 667.704 1603.81C675.401 1619.57 681.307 1635.85 684.709 1651.96ZM677.012 1602.02C692.228 1600.41 708.693 1602.92 720.507 1609.72C737.512 1619.56 737.868 1634.06 720.865 1643.91C713.168 1648.38 703.681 1650.89 693.838 1651.78C690.436 1634.96 684.53 1618.13 677.012 1602.02ZM820.382 1573.21C808.75 1572.85 797.292 1570.34 788.342 1565.15C771.339 1555.31 770.981 1540.81 788.165 1530.79C792.64 1528.28 797.829 1526.31 803.379 1524.88C811.074 1540.63 816.803 1556.92 820.382 1573.21ZM812.686 1523.27C827.9 1521.48 844.367 1523.99 856.179 1530.79C873.361 1540.81 873.361 1555.31 856.358 1565.15C848.842 1569.45 839.355 1572.13 829.51 1572.85C826.11 1556.02 820.202 1539.38 812.686 1523.27V1523.27Z" fill="white"/>
<path d="M1392.07 1900.76C1393.5 1900.76 1394.93 1900.04 1395.65 1898.79L1636.57 1559.78L1722.13 1608.47C1724.27 1609.72 1726.96 1609 1728.21 1606.86L1872.83 1356.09L1908.09 1376.14C1910.56 1377.55 1914.31 1376.05 1914.72 1372.74L1932.79 1212.19C1932.97 1210.4 1932.08 1208.79 1930.47 1207.89C1929.04 1207 1927.07 1207 1925.63 1208.07L1795.33 1304.72C1794.08 1305.62 1793.54 1307.05 1793.54 1308.48C1793.72 1310.09 1794.44 1311.35 1795.87 1312.24L1830.95 1332.11L1722.48 1519.87L1637.28 1471.36C1635.14 1470.29 1632.45 1471 1631.2 1473.15L1388.13 1893.95C1387.06 1896.1 1387.6 1898.79 1389.56 1900.04C1390.46 1900.58 1391.17 1900.76 1392.07 1900.76Z" fill="white"/>
<path d="M1294.33 1081.37C1299.49 1083.31 1307.49 1082.59 1318.55 1079.23L1318.65 1111.81C1309.99 1115.17 1301.55 1115.25 1293.32 1111.82L1282.74 1132.54C1293.39 1136.98 1305.34 1136.25 1318.7 1130.05L1318.73 1142.38L1328.04 1137.01L1328 1124.93C1337.96 1118.55 1345.95 1110.66 1351.95 1101.02C1357.96 1091.38 1360.89 1081.63 1360.86 1071.94C1360.83 1062.13 1358.18 1056.1 1352.91 1054.1C1347.65 1051.98 1339.42 1052.57 1328.25 1055.99L1327.81 1056.25L1327.72 1024.8C1335.27 1021.57 1342.18 1020.86 1348.66 1022.41L1358.03 1001.5C1348.48 999.579 1338.4 1001.12 1327.67 1006.43L1327.64 997.877L1318.34 1003.25L1318.36 1011.68C1308.95 1017.62 1301.29 1025.44 1295.4 1035.01C1289.5 1044.59 1286.57 1054.22 1286.6 1063.91C1286.63 1073.47 1289.17 1079.31 1294.32 1081.37L1294.33 1081.37ZM1339.82 1076.28C1342.01 1077.4 1343.12 1079.79 1343.13 1083.69C1343.14 1087.59 1341.72 1091.68 1339 1095.9C1336.38 1099.94 1332.66 1103.72 1327.95 1106.94L1327.87 1076.75C1333.68 1075.41 1337.73 1075.21 1339.82 1076.28ZM1308.13 1040.01C1310.54 1036.1 1314.03 1032.57 1318.41 1029.67L1318.49 1058.6C1313.01 1059.75 1309.29 1059.89 1307.31 1058.76C1305.44 1057.69 1304.45 1055.24 1304.44 1051.6C1304.43 1047.82 1305.63 1043.98 1308.13 1040.01L1308.13 1040.01Z" fill="white"/>
<path d="M1033.13 1436.82C1031.8 1422.91 1021.13 1417.57 1008.03 1425.13C994.065 1433.19 982.782 1452.73 982.828 1468.78C982.874 1484.83 994.231 1491.3 1008.19 1483.24C1019.91 1476.47 1029.65 1461.63 1032.48 1447.54L1178.44 1363.27C1179.18 1362.84 1179.78 1362.22 1180.17 1361.47L1209.88 1304.77C1219.57 1307.76 1229.79 1309.44 1240.55 1309.44C1266.41 1309.44 1294.99 1300.85 1324.5 1283.86C1324.54 1283.84 1324.55 1283.79 1324.59 1283.77C1324.65 1283.74 1324.71 1283.75 1324.76 1283.72C1367.15 1259.25 1406.09 1220.04 1437.2 1174.26L1464.93 1194.75C1465.72 1195.33 1466.66 1195.63 1467.59 1195.63C1468.36 1195.63 1469.14 1195.44 1469.83 1195.03L1610.66 1113.71C1612.83 1126.06 1623.13 1130.45 1635.56 1123.27C1649.53 1115.21 1660.81 1095.67 1660.77 1079.62C1660.72 1063.57 1649.36 1057.1 1635.4 1065.17C1622.98 1072.34 1612.73 1088.59 1610.64 1103.39L1467.89 1185.81L1442.27 1166.89C1482.99 1104.33 1508.87 1030.49 1508.68 964.815C1508.53 907.291 1488.7 864.239 1452.85 843.596C1449.43 841.631 1445.82 840.111 1442.2 838.6L1470.76 784.096L1610.66 703.318C1612.83 715.67 1623.13 720.056 1635.56 712.879C1649.53 704.817 1660.81 685.274 1660.77 669.227C1660.72 653.18 1649.36 646.709 1635.4 654.772C1622.98 661.944 1612.73 678.19 1610.64 692.989L1465.16 776.983C1464.43 777.42 1463.83 778.032 1463.43 778.783L1433.68 835.565C1400.71 825.375 1360.9 832.329 1319.09 856.444C1276.63 880.97 1237.63 920.23 1206.47 966.048L1178.66 945.501C1177.23 944.47 1175.3 944.33 1173.76 945.221L1033.13 1026.42C1031.8 1012.51 1021.12 1007.17 1008.03 1014.73C994.063 1022.8 982.78 1042.34 982.826 1058.39C982.872 1074.43 994.229 1080.91 1008.19 1072.84C1019.91 1066.07 1029.65 1051.23 1032.48 1037.14L1175.7 954.449L1201.4 973.427C1160.64 1036.02 1134.72 1109.89 1134.91 1175.62L1135.05 1179.83C1135.05 1179.83 1135.05 1179.84 1135.05 1179.84C1136.12 1235.48 1156.08 1277.07 1191.28 1296.97C1194.52 1298.81 1197.89 1300.36 1201.32 1301.79L1172.84 1356.16L1033.13 1436.82H1033.13ZM1435.18 1161.64L1421.94 1151.86C1419.97 1150.39 1417.16 1150.81 1415.68 1152.8C1414.21 1154.8 1414.63 1157.59 1416.62 1159.06L1430.1 1169.02C1401.36 1211.33 1365.78 1247.92 1326.95 1271.98L1326.45 1172.71C1373.84 1143.98 1412.05 1077.79 1413.09 1022.63L1499.63 972.65C1497.86 1034.6 1473.17 1103.15 1435.18 1161.64ZM1429.44 843.647L1415.67 869.937C1414.52 872.122 1415.37 874.831 1417.56 875.985C1418.22 876.335 1418.93 876.492 1419.64 876.492C1421.25 876.492 1422.8 875.618 1423.61 874.097L1438.06 846.515C1441.58 847.948 1445.07 849.454 1448.38 851.357C1480.82 870.024 1499 909.35 1499.72 962.255L1412.85 1012.43C1411.16 988.012 1401.59 969.675 1385.47 960.376C1378.04 956.076 1369.63 953.961 1360.56 953.961C1349.83 953.961 1338.16 956.932 1326.1 962.858L1325.82 862.911C1363.87 841.478 1399.76 835.093 1429.44 843.648V843.647ZM1323.88 974.183C1323.88 974.183 1323.88 974.178 1323.89 974.175C1345.75 961.652 1366.04 959.52 1381 968.117C1395.87 976.699 1404.09 995.14 1404.16 1020.05C1404.32 1073.71 1366.43 1139.31 1319.72 1166.28C1298.17 1178.73 1278.07 1181 1263.1 1172.73C1248.72 1164.78 1240.32 1147.61 1239.45 1124.4V1124.4L1239.31 1120.35C1239.15 1066.77 1277.09 1001.21 1323.88 974.183H1323.88ZM1208.53 978.692L1221.67 988.394C1223.64 989.88 1226.45 989.46 1227.93 987.45C1229.39 985.457 1228.97 982.661 1226.98 981.192L1213.58 971.291C1242.36 928.943 1277.99 892.309 1316.88 868.209L1317.08 941.03L1317.16 967.75C1268.93 996.975 1230.21 1064.8 1230.36 1120.5L1230.42 1122.04L1143.88 1172C1144.59 1108.94 1169.61 1038.57 1208.53 978.692ZM1195.68 1289.2C1163.88 1271.21 1145.61 1233.28 1144.06 1182.24L1231.03 1132.03C1233.45 1154.83 1243.16 1171.93 1258.78 1180.56C1274.97 1189.51 1295.6 1188.43 1317.5 1177.63L1317.79 1277.38C1279.73 1298.76 1243.82 1305.13 1214.15 1296.61L1227.92 1270.32C1229.07 1268.13 1228.22 1265.42 1226.04 1264.27C1223.87 1263.12 1221.15 1263.97 1219.99 1266.16L1205.54 1293.73C1202.19 1292.37 1198.84 1290.98 1195.68 1289.2H1195.68Z" fill="white"/>
<path d="M1472.44 2268.58C1541.46 2308.43 1654.23 2308.91 1724.09 2268.58C1793.6 2227.97 1795.84 2159.73 1723.02 2117.69C1653.57 2077.59 1540.63 2077.59 1471.72 2117.69C1401.24 2158.65 1400.53 2226.85 1472.44 2268.58ZM1673.08 2234.03C1631.92 2258.02 1564.62 2258.02 1523.09 2234.03C1482.9 2210.59 1483.22 2175.02 1522.55 2152.23C1563.88 2128.16 1630.77 2128.1 1672.55 2152.23C1712.05 2174.91 1713.05 2210.87 1673.08 2234.03Z" fill="white"/>
<path d="M1580.2 2218.01H1580.19C1577.72 2218.01 1575.72 2220.01 1575.72 2222.49C1575.72 2224.95 1577.72 2226.96 1580.18 2226.96L1615.38 2227H1615.39C1616.58 2227 1617.72 2226.53 1618.56 2225.69C1619.4 2224.83 1619.87 2223.69 1619.86 2222.5L1619.53 2163.69C1619.51 2161.22 1617.51 2159.23 1615.06 2159.23H1615.03C1612.56 2159.25 1610.56 2161.26 1610.58 2163.72L1610.89 2218.05L1580.2 2218.01Z" fill="white"/>
<path d="M2186.79 1895.15L1823.65 2105.06C1808.13 2114.03 1808.02 2130.07 1823.49 2139.02C1837.34 2147.08 1859.14 2147.06 1873.15 2138.99L2236.29 1929.08C2251.91 1920.04 2251.9 1904.09 2236.54 1895.17C2222.63 1887.09 2200.77 1887.11 2186.79 1895.15ZM2232.05 1902.9C2241.54 1908.43 2241.3 1915.85 2231.81 1921.32L1868.67 2131.23C1857.59 2137.64 1838.96 2137.66 1827.98 2131.3C1818.53 2125.82 1818.62 2118.31 1828.12 2112.82L2191.26 1902.91C2202.35 1896.52 2221.05 1896.54 2232.05 1902.9Z" fill="white"/>
<path d="M1693.69 2064.11C1707.58 2072.19 1729.41 2072.08 1743.34 2064.05L2206.65 1795.92C2222.27 1786.88 2222.27 1770.93 2206.91 1762.01C2192.99 1753.94 2171.14 1753.95 2157.15 1761.99L1693.84 2030.14C1678.11 2039.22 1678.45 2055.27 1693.69 2064.11ZM1698.32 2037.9L2161.63 1769.75C2185.34 1756.09 2226.46 1774.15 2202.18 1788.16L1738.86 2056.29C1714.48 2070.41 1674.52 2051.56 1698.32 2037.9Z" fill="white"/>
<path d="M1321.01 2599.52C1299.53 2544.4 1260.16 2493.21 1240.29 2477.81C1237.54 2475.06 1258.36 2487.87 507.152 2051.1C497.665 2045.74 485.495 2046.81 473.146 2053.97C471.175 2055.04 469.386 2056.47 467.596 2057.73L424.638 2032.85C419.27 2029.8 412.466 2030.16 405.666 2034.1C392.959 2041.62 382.934 2058.8 382.934 2073.48C382.934 2081.35 385.796 2087.44 391.167 2090.48L431.26 2113.75C430.543 2117.51 430.008 2121.09 429.65 2124.49L420.521 2119.3C417.477 2117.51 413.719 2119.66 413.719 2123.06L413.54 2165.12C413.54 2166.73 414.436 2168.34 415.867 2169.06L701.355 2334.08C713.167 2340.89 723.729 2336.23 726.053 2324.42L1173.17 2584.31C1173.34 2584.31 1173.52 2584.49 1173.7 2584.67C1173.7 2584.67 1174.96 2585.2 1175.14 2585.2C1175.31 2585.38 1175.49 2585.56 1175.67 2585.56C1205.8 2599.51 1286.47 2609.02 1316.18 2607.04C1335.04 2617.69 1334.34 2617.96 1336.22 2617.96C1340.4 2617.96 1342.47 2611.93 1338.37 2609.55L1321.01 2599.52L1321.01 2599.52ZM705.831 2326.39L422.67 2162.61V2130.75L701.535 2292.02C710.305 2297.03 717.642 2309.74 717.642 2319.77C717.642 2328 712.989 2330.51 705.831 2326.39ZM725.696 2313.86C723.55 2302.05 715.853 2289.88 706.01 2284.15L545.993 2191.79L564.965 2181.23C567.928 2179.11 567.743 2175.09 564.965 2173.35L496.234 2133.44C494.803 2132.72 493.19 2132.72 491.759 2133.44L467.954 2146.68L438.241 2129.5C438.42 2104.44 455.961 2074.19 477.62 2061.66C485.484 2057.24 494.68 2054.53 502.677 2058.8L938.694 2312.25C934.934 2313.14 930.817 2314.75 926.164 2317.26C901.643 2331.58 882.49 2364.87 882.49 2393.15C882.49 2397.98 883.207 2402.1 884.461 2406.22L725.696 2313.86V2313.86ZM1179.43 2577.51L1179.25 2577.33C1179.08 2577.33 1178.9 2577.15 1178.54 2576.97C1178.36 2576.97 1178.18 2576.79 1178 2576.61C1176.93 2576.08 1176.03 2575 1175.14 2574.29C1147.75 2546.96 1202.06 2465.08 1233.13 2483.72L1234.38 2484.44C1253.36 2499.29 1289.69 2546.37 1310.81 2598.27C1262.84 2598.63 1198.59 2586.46 1179.43 2577.51Z" fill="white"/>
</svg>
