<svg width="512" height="512" viewBox="0 0 512 512" fill="none" xmlns="http://www.w3.org/2000/svg">
<path d="M257.732 91.2975L181.056 80.1568L146.767 10.6763C145.773 8.67156 144.239 6.98427 142.337 5.80465C140.436 4.62504 138.243 4 136.005 4C133.767 4 131.574 4.62504 129.673 5.80465C127.771 6.98427 126.237 8.67156 125.243 10.6763L90.9542 80.1568L14.2784 91.2975C12.0644 91.6225 9.98516 92.5598 8.27539 94.0036C6.56562 95.4474 5.29332 97.3402 4.602 99.4685C3.91068 101.597 3.82787 103.876 4.36289 106.049C4.89792 108.222 6.02949 110.202 7.62997 111.766L63.1105 165.848L50.0128 242.215C49.6383 244.422 49.8876 246.689 50.7327 248.761C51.5777 250.833 52.9849 252.627 54.7955 253.943C56.606 255.258 58.748 256.041 60.9798 256.204C63.2117 256.366 65.4446 255.902 67.4268 254.864L136.005 218.809L204.583 254.864C206.565 255.902 208.798 256.366 211.03 256.204C213.262 256.041 215.404 255.258 217.214 253.943C219.025 252.628 220.432 250.833 221.277 248.761C222.122 246.689 222.372 244.422 221.997 242.215L208.899 165.848L264.38 111.766C265.98 110.202 267.112 108.222 267.647 106.049C268.181 103.876 268.099 101.597 267.407 99.4687C266.716 97.3404 265.444 95.4476 263.734 94.0039C262.025 92.5601 259.946 91.6227 257.732 91.2975Z" fill="#F66435"/>
<path d="M375.996 147.988H291.086C287.903 147.988 284.851 146.724 282.601 144.473C280.35 142.223 279.086 139.17 279.086 135.988C279.086 132.805 280.35 129.753 282.601 127.503C284.851 125.252 287.903 123.988 291.086 123.988H375.996C379.179 123.988 382.231 125.252 384.481 127.503C386.732 129.753 387.996 132.805 387.996 135.988C387.996 139.17 386.732 142.223 384.481 144.473C382.231 146.724 379.179 147.988 375.996 147.988Z" fill="url(#paint0_linear_75_44)"/>
<path d="M375.996 257.988H254.016C250.833 257.988 247.781 256.724 245.53 254.473C243.28 252.223 242.016 249.17 242.016 245.988C242.016 242.805 243.28 239.753 245.53 237.503C247.781 235.252 250.833 233.988 254.016 233.988H375.996C379.179 233.988 382.231 235.252 384.481 237.503C386.732 239.753 387.996 242.805 387.996 245.988C387.996 249.17 386.732 252.223 384.481 254.473C382.231 256.724 379.179 257.988 375.996 257.988Z" fill="url(#paint1_linear_75_44)"/>
<path d="M375.996 357.988H135.996C132.813 357.988 129.761 356.723 127.511 354.473C125.26 352.223 123.996 349.17 123.996 345.988C123.996 342.805 125.26 339.753 127.511 337.503C129.761 335.252 132.813 333.988 135.996 333.988H375.996C379.179 333.988 382.231 335.252 384.481 337.503C386.732 339.753 387.996 342.805 387.996 345.988C387.996 349.17 386.732 352.223 384.481 354.473C382.231 356.723 379.179 357.988 375.996 357.988Z" fill="url(#paint2_linear_75_44)"/>
<path d="M490.406 506.597L402.978 460.635C360.223 491.561 308.764 508.136 255.996 507.976C189.172 507.95 125.092 481.393 77.8397 434.142C30.5872 386.891 4.02833 322.812 4 255.988C4 252.805 5.26428 249.753 7.51472 247.503C9.76516 245.252 12.8174 243.988 16 243.988C19.1826 243.988 22.2348 245.252 24.4853 247.503C26.7357 249.753 28 252.805 28 255.988C28.0445 316.442 52.0799 374.407 94.828 417.154C137.576 459.901 195.542 483.935 255.996 483.977C306.127 484.125 354.882 467.589 394.58 436.976C396.4 435.584 398.58 434.741 400.863 434.546C403.146 434.352 405.437 434.814 407.466 435.878L480.055 474.04L460.75 361.499C460.331 359.05 460.682 356.532 461.754 354.292C476.477 323.617 484.079 290.013 483.992 255.988C483.984 220.994 475.922 186.471 460.431 155.092C444.94 123.713 422.435 96.3207 394.658 75.0352C366.882 53.7496 334.579 39.1421 300.252 32.3437C265.924 25.5453 230.493 26.7383 196.7 35.8305C193.626 36.6551 190.351 36.225 187.595 34.6347C184.838 33.0444 182.826 30.4242 182.001 27.3506C181.177 24.2769 181.607 21.0015 183.197 18.245C184.787 15.4885 187.408 13.4766 190.481 12.6519C227.83 2.60528 266.99 1.28879 304.929 8.80438C342.868 16.32 378.568 32.466 409.266 55.9925C439.964 79.5189 464.835 109.795 481.955 144.475C499.075 179.156 507.984 217.312 507.992 255.988C508.081 292.297 500.25 328.188 485.043 361.159L507.82 493.949C508.195 496.156 507.946 498.423 507.102 500.495C506.257 502.568 504.849 504.363 503.039 505.678C501.228 506.993 499.086 507.776 496.854 507.939C494.621 508.101 492.388 507.636 490.406 506.597Z" fill="url(#paint3_linear_75_44)"/>
<defs>
<linearGradient id="paint0_linear_75_44" x1="333.541" y1="123.988" x2="333.541" y2="147.988" gradientUnits="userSpaceOnUse">
<stop stop-color="white"/>
<stop offset="0.5" stop-color="white"/>
<stop offset="1" stop-color="#999999"/>
</linearGradient>
<linearGradient id="paint1_linear_75_44" x1="315.006" y1="233.988" x2="315.006" y2="257.988" gradientUnits="userSpaceOnUse">
<stop stop-color="white"/>
<stop offset="0.5" stop-color="white"/>
<stop offset="1" stop-color="#999999"/>
</linearGradient>
<linearGradient id="paint2_linear_75_44" x1="255.996" y1="333.988" x2="255.996" y2="357.988" gradientUnits="userSpaceOnUse">
<stop stop-color="white"/>
<stop offset="0.5" stop-color="white"/>
<stop offset="1" stop-color="#999999"/>
</linearGradient>
<linearGradient id="paint3_linear_75_44" x1="255.996" y1="4" x2="255.996" y2="507.977" gradientUnits="userSpaceOnUse">
<stop stop-color="white"/>
<stop offset="0.5" stop-color="white"/>
<stop offset="1" stop-color="#999999"/>
</linearGradient>
</defs>
</svg>
